<svg width="125" height="109" viewBox="0 0 125 109" fill="none" xmlns="http://www.w3.org/2000/svg">
<g clip-path="url(#clip0_72_318)">
<path d="M6.03153 37.1439L0.00433913 33.7615C-0.0769611 30.1427 0.729568 26.5589 2.35389 23.3212C3.74349 29.6052 11.0565 32.5949 14.4306 38.0816C15.4698 39.8009 16.1073 41.7312 16.296 43.7294C16.4847 45.7275 16.2197 47.7424 15.5205 49.6246L15.9169 54.4968C12.8019 53.5672 9.92613 51.9758 7.4878 49.8322C5.04948 47.6886 3.10655 45.0439 1.79289 42.0801C1.07246 40.4101 0.565973 38.6565 0.285369 36.8604C3.0955 37.1584 6.03153 37.1439 6.03153 37.1439Z" fill="#F2F2F2"/>
<path d="M114.38 98.6779L114.565 94.5375C116.492 93.5114 118.641 92.9694 120.825 92.9586C117.819 95.4078 118.194 100.129 116.156 103.422C115.512 104.445 114.646 105.31 113.621 105.953C112.596 106.597 111.439 107.002 110.236 107.139L107.72 108.674C107.375 106.757 107.451 104.787 107.943 102.902C108.435 101.016 109.332 99.2594 110.571 97.7524C111.275 96.9138 112.082 96.1669 112.973 95.5292C113.575 97.1123 114.38 98.6779 114.38 98.6779Z" fill="#E6E6E6"/>
<path d="M107.897 106.544L105.619 106.543L104.535 97.788L107.898 97.7881L107.897 106.544Z" fill="#D13F41"/>
<path d="M108.478 108.744L101.132 108.744V108.651C101.132 107.896 101.434 107.171 101.97 106.637C102.506 106.102 103.233 105.802 103.992 105.802H103.992L105.334 104.788L107.837 105.802L108.478 105.802L108.478 108.744Z" fill="#2F2E41"/>
<path d="M97.3129 106.544L95.0347 106.543L93.9509 97.788L97.3134 97.7881L97.3129 106.544Z" fill="#D13F41"/>
<path d="M97.894 108.744L90.5479 108.744V108.651C90.548 107.896 90.8492 107.171 91.3854 106.637C91.9216 106.102 92.6489 105.802 93.4072 105.802H93.4074L94.7492 104.788L97.2529 105.802L97.8941 105.802L97.894 108.744Z" fill="#2F2E41"/>
<path d="M96.3268 58.6767L111.146 59.0458C113.96 60.5689 114.003 63.8653 113.081 67.7792C113.081 67.7792 113.392 70.1054 112.769 70.7258C112.147 71.3461 111.835 71.3461 112.147 72.4317C112.458 73.5173 110.813 75.2904 111.013 75.4894C111.213 75.6884 111.68 76.774 111.68 76.774L110.123 85.6138C110.123 85.6138 109.034 100.967 108.722 101.277C108.411 101.587 108.1 101.277 108.411 102.053C108.722 102.828 109.034 102.518 108.722 102.828C108.447 103.124 108.187 103.435 107.944 103.759H104.181C104.181 103.759 103.897 102.208 103.897 102.053C103.897 101.898 103.586 100.967 103.586 100.812C103.586 100.657 103.861 100.383 103.861 100.383C103.956 100.068 104.02 99.7439 104.053 99.4163C104.053 99.1061 104.987 87.1647 104.987 87.1647L103.119 71.6563L98.6049 86.8545C98.6049 86.8545 98.6049 100.192 98.2936 100.502C97.9823 100.812 97.9823 100.657 98.138 101.277C98.2936 101.898 98.9162 101.743 98.4493 102.208C97.9823 102.673 97.8266 101.898 97.9823 102.673L98.138 103.448L93.4683 103.515C93.4683 103.515 92.8457 102.208 93.1571 101.743C93.4684 101.277 93.4497 101.404 93.0699 100.643C92.6901 99.8816 92.5344 99.7265 92.6901 99.5714C92.8457 99.4163 92.8457 98.5914 92.8457 98.5914L93.624 83.7528C93.624 83.7528 93.7797 68.0893 93.7797 67.6241C93.7914 67.3847 93.7471 67.1458 93.6504 66.9264V66.2949L94.2466 64.0571L96.3268 58.6767Z" fill="#69687F"/>
<path d="M105.229 27.9759C107.772 27.9759 109.833 25.922 109.833 23.3884C109.833 20.8548 107.772 18.801 105.229 18.801C102.686 18.801 100.624 20.8548 100.624 23.3884C100.624 25.922 102.686 27.9759 105.229 27.9759Z" fill="#FFB6B6"/>
<path d="M102.927 31.0079C101.935 31.5955 101.341 32.675 101.001 33.7736C100.37 35.8074 99.9904 37.9101 99.8702 40.0354L99.5104 46.3981L95.0547 59.9462C98.9163 63.2018 113.432 60.6861 113.432 60.6861C113.432 60.6861 113.877 60.5381 113.432 60.0941C112.986 59.6502 112.552 60.0435 112.998 59.5995C113.444 59.1556 113.136 59.6502 112.988 59.2062C112.839 58.7623 112.988 59.0583 113.136 58.9103C113.285 58.7623 111.987 57.4304 111.987 57.4304L113.175 49.6537L114.66 33.9676C112.878 31.7478 109.293 30.4393 109.293 30.4393L108.367 28.7783L103.736 29.1474L102.927 31.0079Z" fill="#D13F41"/>
<path d="M102.295 20.6961C102.473 20.6975 102.65 20.7207 102.823 20.7652C103.163 20.8466 103.508 20.9043 103.856 20.9378C104.922 21.0377 105.924 21.4906 106.701 22.2242C107.478 22.9578 107.986 23.9297 108.144 24.9848C108.412 24.7523 109.021 24.3248 109.52 24.7222C109.527 24.7285 109.532 24.7317 109.549 24.7234C109.881 24.5668 110.469 22.6389 110.487 20.9413C110.496 20.0403 110.354 18.8898 109.622 18.5255L109.584 18.5063L109.574 18.4646C109.525 18.2619 108.979 17.9159 108.03 17.6467C106.306 17.1573 103.736 16.2041 102.288 17.607C102.179 18.0799 101.822 19.092 101.462 19.2067C101.064 19.3337 100.72 19.4432 100.665 19.9304C100.62 20.6237 100.623 21.3193 100.675 22.0121C100.81 21.5881 101.075 21.2171 101.433 20.9512C101.688 20.7805 101.988 20.6915 102.295 20.6961Z" fill="#2F2E41"/>
<path d="M93.7251 46.0439L101.246 41.2448L97.4581 36.2275L93.7175 40.8119L82.0627 41.5241C81.7562 41.2222 81.3681 41.0157 80.9458 40.9297C80.5235 40.8438 80.0852 40.8821 79.6844 41.04C79.2835 41.198 78.9375 41.4687 78.6884 41.8192C78.4394 42.1697 78.298 42.5849 78.2817 43.014C78.2653 43.4432 78.3746 43.8678 78.5963 44.2361C78.8179 44.6044 79.1424 44.9005 79.53 45.0883C79.9177 45.2761 80.3518 45.3474 80.7794 45.2937C81.2071 45.2399 81.6098 45.0633 81.9384 44.7854L93.7251 46.0439Z" fill="#FFB6B6"/>
<path d="M108.227 34.5461C108.663 37.1782 100.42 42.2044 100.42 42.2044C100.42 41.5866 95.4998 46.2506 95.2777 45.7382C94.6466 44.282 94.2028 40.8329 93.3208 40.2808C92.8165 39.9651 96.3586 36.9992 96.3586 36.9992C96.3586 36.9992 98.2127 35.1382 100.646 32.7907C101.321 32.1143 102.158 31.6193 103.077 31.3515C103.996 31.0838 104.968 31.0522 105.903 31.2596C105.903 31.2596 107.79 31.914 108.227 34.5461Z" fill="#D13F41"/>
<path d="M123.729 47.3036L118.754 39.9133L113.8 43.793L118.479 47.422L119.441 59.0165C119.144 59.3282 118.945 59.7192 118.868 60.1417C118.791 60.5642 118.838 60.9999 119.005 61.3959C119.172 61.7918 119.451 62.1308 119.808 62.3715C120.165 62.6121 120.585 62.7441 121.016 62.7513C121.447 62.7585 121.871 62.6407 122.235 62.4121C122.6 62.1835 122.891 61.854 123.071 61.4639C123.251 61.0738 123.313 60.6398 123.25 60.215C123.187 59.7901 123.002 59.3927 122.716 59.0713L123.729 47.3036Z" fill="#FFB6B6"/>
<path d="M111.885 33.1015C114.517 32.611 119.735 40.716 119.735 40.716C119.115 40.7292 123.899 45.5314 123.389 45.7635C121.942 46.423 118.49 46.9381 117.955 47.8284C117.649 48.3375 114.598 44.8719 114.598 44.8719C114.598 44.8719 112.691 43.0644 110.284 40.6904C109.591 40.0318 109.076 39.2092 108.788 38.2992C108.5 37.3892 108.448 36.4214 108.636 35.4858C108.636 35.4858 109.253 33.5921 111.885 33.1015Z" fill="#D13F41"/>
<path d="M125 108.78C125 108.809 124.994 108.838 124.983 108.865C124.972 108.891 124.956 108.915 124.936 108.936C124.915 108.956 124.891 108.972 124.864 108.983C124.837 108.994 124.809 109 124.78 109H72.86C72.8015 109 72.7455 108.977 72.7041 108.936C72.6628 108.894 72.6396 108.839 72.6396 108.78C72.6396 108.722 72.6628 108.666 72.7041 108.625C72.7455 108.584 72.8015 108.561 72.86 108.561H124.78C124.809 108.561 124.837 108.566 124.864 108.577C124.891 108.588 124.915 108.604 124.936 108.625C124.956 108.645 124.972 108.67 124.983 108.696C124.994 108.723 125 108.751 125 108.78Z" fill="#D13F41"/>
<path d="M76.9025 42.2255H13.8911C12.9067 42.2266 11.9628 42.6168 11.2667 43.3103C10.5706 44.0039 10.179 44.9443 10.1779 45.9251V85.0125C10.1791 85.9933 10.5706 86.9337 11.2667 87.6272C11.9628 88.3208 12.9067 88.711 13.8911 88.7121H76.9025C77.8869 88.711 78.8308 88.3208 79.5269 87.6273C80.223 86.9337 80.6146 85.9933 80.6157 85.0125V45.9251C80.6146 44.9443 80.2231 44.0039 79.5269 43.3103C78.8308 42.6168 77.887 42.2266 76.9025 42.2255Z" fill="#737373"/>
<path d="M76.9025 42.2255H13.8911C12.9067 42.2266 11.9628 42.6168 11.2667 43.3103C10.5706 44.0039 10.179 44.9443 10.1779 45.9251V85.0125C10.1791 85.9933 10.5706 86.9337 11.2667 87.6272C11.9628 88.3208 12.9067 88.711 13.8911 88.7121H76.9025C77.8869 88.711 78.8308 88.3208 79.5269 87.6273C80.223 86.9337 80.6146 85.9933 80.6157 85.0125V45.9251C80.6146 44.9443 80.2231 44.0039 79.5269 43.3103C78.8308 42.6168 77.887 42.2266 76.9025 42.2255ZM78.1211 70.3024C78.106 74.2817 76.5262 78.0967 73.7206 80.9288C70.915 83.761 67.107 85.3847 63.1136 85.4517C56.72 85.5346 66.6512 85.5669 58.94 85.5669C41.307 85.5669 22.9206 85.3991 16.0604 85.2902C15.1578 85.2717 14.2983 84.9023 13.6653 84.2609C13.0323 83.6196 12.676 82.7571 12.6726 81.8577V45.928C12.6729 45.6059 12.8013 45.2971 13.0296 45.069C13.2579 44.841 13.5676 44.7123 13.8909 44.7112H76.9C77.2232 44.7116 77.5331 44.8394 77.7619 45.0669C77.9908 45.2943 78.1199 45.6028 78.1211 45.9248V70.3024Z" fill="#D13F41"/>
<path d="M69.1459 19.7178H21.1378C20.7131 19.7184 20.2988 19.8497 19.9517 20.0935C19.6046 20.3374 19.3414 20.6821 19.1982 21.0806L11.7837 41.8065C11.6731 42.1158 11.6386 42.4471 11.6831 42.7725C11.7277 43.0979 11.85 43.4079 12.0397 43.6765C12.2295 43.945 12.4812 44.1642 12.7737 44.3157C13.0661 44.4671 13.3908 44.5464 13.7204 44.5469L78.1071 44.6608H78.11C78.4507 44.6608 78.7862 44.5765 79.0862 44.4155C79.3862 44.2546 79.6414 44.022 79.829 43.7385C80.0166 43.4551 80.1306 43.1297 80.1609 42.7916C80.1912 42.4534 80.1368 42.1131 80.0026 41.801L79.8904 41.8489L80.0026 41.801L71.0385 20.9613C70.8801 20.592 70.6162 20.2773 70.2797 20.0563C69.9432 19.8352 69.549 19.7175 69.1459 19.7178Z" fill="#D13F41"/>
<path d="M80.1693 42.2511C80.1691 42.529 80.1124 42.804 80.0026 43.0594L71.0391 59.1013C70.8795 59.4697 70.6152 59.7836 70.2789 60.0043C69.9425 60.225 69.5487 60.3428 69.146 60.3433H21.1386C20.7137 60.3429 20.2992 60.2119 19.9518 59.9681C19.6044 59.7244 19.3409 59.3798 19.1973 58.9813L11.7842 43.0539C11.6934 42.8002 11.6536 42.5311 11.6671 42.262C11.6807 41.9929 11.7474 41.7291 11.8633 41.4857C11.9793 41.2423 12.1422 41.0241 12.3429 40.8435C12.5435 40.6629 12.7779 40.5235 13.0327 40.4332C13.2531 40.3539 13.4856 40.3133 13.7199 40.3132L21.585 40.2985L24.7951 40.2929L67.0361 40.2191L70.2481 40.2136L78.1076 40.1988H78.1095C78.6558 40.1989 79.1796 40.4151 79.5659 40.8C79.9522 41.1848 80.1692 41.7068 80.1693 42.2511Z" fill="#D13F41"/>
<path d="M18.6149 71.5455C19.5669 71.5455 32.6398 72.3416 32.6398 73.2901C32.6398 74.2386 19.5669 74.9804 18.6149 74.9804C18.1578 74.9804 17.7193 74.7994 17.3961 74.4774C17.0728 74.1553 16.8912 73.7184 16.8912 73.263C16.8912 72.8075 17.0728 72.3706 17.3961 72.0486C17.7193 71.7265 18.1578 71.5455 18.6149 71.5455Z" fill="#D13F41"/>
<path d="M66.1563 7.10931H25.6768C24.592 7.11056 23.552 7.54049 22.7849 8.30479C22.0178 9.06908 21.5863 10.1053 21.585 11.1862V60.3434H69.146C69.5365 60.3446 69.9191 60.2338 70.2481 60.0241V11.1862C70.2469 10.1053 69.8154 9.06909 69.0483 8.30479C68.2812 7.5405 67.2411 7.11057 66.1563 7.10931Z" fill="#E6E6E6"/>
<path d="M50.7058 10.4147H28.5221C27.5342 10.4157 26.5871 10.807 25.8884 11.5027C25.1898 12.1985 24.7966 13.142 24.7951 14.1262V60.3434H67.0361V26.6854C67.0311 22.3717 65.309 18.2361 62.2476 15.1858C59.1861 12.1355 55.0353 10.4197 50.7058 10.4147Z" fill="white"/>
<path d="M59.8398 56.2388H31.9915C31.7508 56.2388 31.5199 56.334 31.3497 56.5036C31.1795 56.6732 31.0839 56.9033 31.0839 57.1431C31.0839 57.383 31.1795 57.613 31.3497 57.7826C31.5199 57.9522 31.7508 58.0474 31.9915 58.0474H59.8398C60.0805 58.0474 60.3113 57.9522 60.4816 57.7826C60.6518 57.613 60.7474 57.383 60.7474 57.1431C60.7474 56.9033 60.6518 56.6732 60.4816 56.5036C60.3113 56.334 60.0805 56.2388 59.8398 56.2388Z" fill="#E4E4E4"/>
<path d="M59.8398 52.662H31.9915C31.7505 52.662 31.5194 52.7574 31.349 52.9271C31.1787 53.0969 31.0829 53.3272 31.0829 53.5672C31.0829 53.8073 31.1787 54.0376 31.349 54.2074C31.5194 54.3771 31.7505 54.4725 31.9915 54.4725H59.8398C60.0807 54.4725 60.3118 54.3771 60.4822 54.2074C60.6526 54.0376 60.7483 53.8073 60.7483 53.5672C60.7483 53.3272 60.6526 53.0969 60.4822 52.9271C60.3118 52.7574 60.0807 52.662 59.8398 52.662Z" fill="#E4E4E4"/>
<path d="M44.0633 49.0871H31.9915C31.7508 49.0871 31.5199 49.1824 31.3497 49.352C31.1795 49.5216 31.0839 49.7516 31.0839 49.9914C31.0839 50.2313 31.1795 50.4613 31.3497 50.6309C31.5199 50.8005 31.7508 50.8958 31.9915 50.8958H44.0633C44.304 50.8958 44.5349 50.8005 44.7051 50.6309C44.8753 50.4613 44.9709 50.2313 44.9709 49.9914C44.9709 49.7516 44.8753 49.5216 44.7051 49.352C44.5349 49.1824 44.304 49.0871 44.0633 49.0871Z" fill="#E4E4E4"/>
<path d="M59.8398 41.5977H31.9915C31.7505 41.5977 31.5194 41.6931 31.349 41.8629C31.1787 42.0326 31.0829 42.2629 31.0829 42.503C31.0829 42.7431 31.1787 42.9733 31.349 43.1431C31.5194 43.3129 31.7505 43.4082 31.9915 43.4082H59.8398C60.0807 43.4082 60.3118 43.3129 60.4822 43.1431C60.6526 42.9733 60.7483 42.7431 60.7483 42.503C60.7483 42.2629 60.6526 42.0326 60.4822 41.8629C60.3118 41.6931 60.0807 41.5977 59.8398 41.5977Z" fill="#E4E4E4"/>
<path d="M59.8398 38.0228H31.9915C31.7508 38.0228 31.5199 38.1181 31.3497 38.2877C31.1795 38.4573 31.0839 38.6873 31.0839 38.9272C31.0839 39.167 31.1795 39.397 31.3497 39.5666C31.5199 39.7362 31.7508 39.8315 31.9915 39.8315H59.8398C60.0805 39.8315 60.3113 39.7362 60.4816 39.5666C60.6518 39.397 60.7474 39.167 60.7474 38.9272C60.7474 38.6873 60.6518 38.4573 60.4816 38.2877C60.3113 38.1181 60.0805 38.0228 59.8398 38.0228Z" fill="#E4E4E4"/>
<path d="M44.0633 34.4461H31.9915C31.7505 34.4461 31.5194 34.5415 31.349 34.7113C31.1787 34.881 31.0829 35.1113 31.0829 35.3514C31.0829 35.5915 31.1787 35.8217 31.349 35.9915C31.5194 36.1612 31.7505 36.2566 31.9915 36.2566H44.0633C44.3043 36.2566 44.5354 36.1612 44.7058 35.9915C44.8761 35.8217 44.9719 35.5915 44.9719 35.3514C44.9719 35.1113 44.8761 34.881 44.7058 34.7113C44.5354 34.5415 44.3043 34.4461 44.0633 34.4461Z" fill="#E4E4E4"/>
<path d="M59.8398 26.9567H31.9915C31.7505 26.9567 31.5194 27.0521 31.349 27.2219C31.1787 27.3916 31.0829 27.6219 31.0829 27.862C31.0829 28.1021 31.1787 28.3323 31.349 28.5021C31.5194 28.6719 31.7505 28.7672 31.9915 28.7672H59.8398C60.0807 28.7672 60.3118 28.6719 60.4822 28.5021C60.6526 28.3323 60.7483 28.1021 60.7483 27.862C60.7483 27.6219 60.6526 27.3916 60.4822 27.2219C60.3118 27.0521 60.0807 26.9567 59.8398 26.9567Z" fill="#D13F41"/>
<path d="M59.8398 23.3818H31.9915C31.7505 23.3818 31.5194 23.4772 31.349 23.647C31.1787 23.8168 31.0829 24.047 31.0829 24.2871C31.0829 24.5272 31.1787 24.7574 31.349 24.9272C31.5194 25.097 31.7505 25.1924 31.9915 25.1924H59.8398C60.0807 25.1924 60.3118 25.097 60.4822 24.9272C60.6526 24.7574 60.7483 24.5272 60.7483 24.2871C60.7483 24.047 60.6526 23.8168 60.4822 23.647C60.3118 23.4772 60.0807 23.3818 59.8398 23.3818Z" fill="#D13F41"/>
<path d="M44.0633 19.8051H31.9915C31.7505 19.8051 31.5194 19.9004 31.349 20.0702C31.1787 20.24 31.0829 20.4702 31.0829 20.7103C31.0829 20.9504 31.1787 21.1807 31.349 21.3504C31.5194 21.5202 31.7505 21.6156 31.9915 21.6156H44.0633C44.3043 21.6156 44.5354 21.5202 44.7058 21.3504C44.8761 21.1807 44.9719 20.9504 44.9719 20.7103C44.9719 20.4702 44.8761 20.24 44.7058 20.0702C44.5354 19.9004 44.3043 19.8051 44.0633 19.8051Z" fill="#D13F41"/>
<path d="M68.7305 14.0865C72.6347 14.0865 75.7996 10.9332 75.7996 7.04328C75.7996 3.15338 72.6347 0 68.7305 0C64.8264 0 61.6614 3.15338 61.6614 7.04328C61.6614 10.9332 64.8264 14.0865 68.7305 14.0865Z" fill="#737373"/>
<path d="M67.7661 10.709C67.6441 10.709 67.5237 10.6806 67.4145 10.6262C67.3053 10.5718 67.2103 10.4928 67.1371 10.3955L65.2086 7.83345C65.1463 7.75117 65.1009 7.65745 65.075 7.55766C65.0491 7.45787 65.0433 7.35397 65.0578 7.25192C65.0723 7.14988 65.1068 7.05168 65.1595 6.96296C65.2121 6.87424 65.2818 6.79674 65.3646 6.73491C65.4473 6.67307 65.5415 6.62811 65.6417 6.6026C65.742 6.5771 65.8463 6.57154 65.9486 6.58626C66.051 6.60098 66.1495 6.63568 66.2384 6.68838C66.3273 6.74107 66.4049 6.81073 66.4667 6.89335L67.7284 8.56939L70.969 3.72633C71.0847 3.55343 71.2646 3.43341 71.4691 3.39266C71.6736 3.35191 71.886 3.39377 72.0595 3.50903C72.233 3.62429 72.3535 3.80352 72.3944 4.00727C72.4353 4.21103 72.3933 4.42263 72.2776 4.59552L68.4205 10.3601C68.3507 10.4643 68.2569 10.5504 68.1468 10.611C68.0368 10.6717 67.9137 10.7052 67.788 10.7087C67.7807 10.7088 67.7734 10.709 67.7661 10.709Z" fill="white"/>
</g>
<defs>
<clipPath id="clip0_72_318">
<rect width="125" height="109" fill="white"/>
</clipPath>
</defs>
</svg>
