<svg width="28" height="24" viewBox="0 0 28 24" fill="none" xmlns="http://www.w3.org/2000/svg">
<path d="M8.71968 13.7522C8.71968 14.8976 7.6099 16.0022 6.00756 16.0022C4.40522 16.0022 3.29544 14.8976 3.29544 13.7522C3.29544 12.6068 4.40522 11.5022 6.00756 11.5022C7.6099 11.5022 8.71968 12.6068 8.71968 13.7522Z" stroke="white" stroke-width="1.5"/>
<path d="M16.798 5.36621C16.798 6.51158 15.6882 7.61621 14.0859 7.61621C12.4835 7.61621 11.3737 6.51158 11.3737 5.36621C11.3737 4.22084 12.4835 3.11621 14.0859 3.11621C15.6882 3.11621 16.798 4.22084 16.798 5.36621Z" stroke="white" stroke-width="1.5"/>
<path d="M24.8763 15.3193C24.8763 16.4647 23.7665 17.5693 22.1641 17.5693C20.5618 17.5693 19.452 16.4647 19.452 15.3193C19.452 14.174 20.5618 13.0693 22.1641 13.0693C23.7665 13.0693 24.8763 14.174 24.8763 15.3193Z" stroke="white" stroke-width="1.5"/>
<path d="M6.00757 3.5V11.2284" stroke="white" stroke-width="1.5" stroke-linecap="round"/>
<path d="M6.00757 16.1686V20.0431" stroke="white" stroke-width="1.5" stroke-linecap="round"/>
<path d="M14.0858 7.8606V20.0431" stroke="white" stroke-width="1.5" stroke-linecap="round"/>
<path d="M22.1642 3.5L22.1642 12.8612" stroke="white" stroke-width="1.5" stroke-linecap="round"/>
<path d="M22.1642 17.7422V20.043" stroke="white" stroke-width="1.5" stroke-linecap="round"/>
</svg>
