<svg width="155" height="142" viewBox="0 0 155 142" fill="none" xmlns="http://www.w3.org/2000/svg">
<rect x="13" y="6" width="82" height="82" rx="41" fill="#D13F41"/>
<circle cx="45.3154" cy="51.9071" r="7.55558" transform="rotate(-165 45.3154 51.9071)" stroke="white" stroke-width="5"/>
<path d="M53.552 46.5529L75.9164 33.7323" stroke="white" stroke-width="5" stroke-linecap="round"/>
<path d="M72.0193 35.9824L74.5193 40.3125" stroke="white" stroke-width="5" stroke-linecap="round"/>
<path d="M64.658 40.2324L67.158 44.5625" stroke="white" stroke-width="5" stroke-linecap="round"/>
<rect opacity="0.5" x="5" y="3" width="42" height="42" rx="21" fill="#4C407B"/>
<rect width="42" height="42" rx="21" fill="#69687F"/>
<path d="M18.9199 23.2637V22.541C18.9199 22.0983 18.9818 21.7077 19.1055 21.3691C19.2292 21.0241 19.4277 20.6986 19.7012 20.3926C19.9746 20.0801 20.3359 19.7611 20.7852 19.4355C21.1888 19.1491 21.5111 18.8919 21.752 18.6641C21.9993 18.4362 22.1784 18.2116 22.2891 17.9902C22.4062 17.7624 22.4648 17.5052 22.4648 17.2188C22.4648 16.7956 22.3086 16.4733 21.9961 16.252C21.6836 16.0306 21.2474 15.9199 20.6875 15.9199C20.1276 15.9199 19.571 16.0078 19.0176 16.1836C18.4707 16.3594 17.9141 16.5905 17.3477 16.877L16.2832 14.7383C16.9342 14.3737 17.6406 14.0807 18.4023 13.8594C19.1641 13.6315 19.9974 13.5176 20.9023 13.5176C22.2956 13.5176 23.373 13.8529 24.1348 14.5234C24.903 15.1875 25.2871 16.0339 25.2871 17.0625C25.2871 17.6094 25.1992 18.0846 25.0234 18.4883C24.8542 18.8854 24.5938 19.2565 24.2422 19.6016C23.8971 19.9401 23.4642 20.2982 22.9434 20.6758C22.5527 20.9622 22.2533 21.2031 22.0449 21.3984C21.8366 21.5938 21.6934 21.7891 21.6152 21.9844C21.5436 22.1732 21.5078 22.4043 21.5078 22.6777V23.2637H18.9199ZM18.6074 26.6035C18.6074 25.9915 18.7734 25.5618 19.1055 25.3145C19.444 25.0671 19.8509 24.9434 20.3262 24.9434C20.7884 24.9434 21.1855 25.0671 21.5176 25.3145C21.8561 25.5618 22.0254 25.9915 22.0254 26.6035C22.0254 27.1895 21.8561 27.6126 21.5176 27.873C21.1855 28.1335 20.7884 28.2637 20.3262 28.2637C19.8509 28.2637 19.444 28.1335 19.1055 27.873C18.7734 27.6126 18.6074 27.1895 18.6074 26.6035Z" fill="white"/>
<path d="M141.935 129.607L142.15 124.767C144.395 123.568 146.898 122.935 149.443 122.922C145.941 125.785 146.378 131.303 144.004 135.153C143.254 136.348 142.245 137.359 141.051 138.111C139.857 138.863 138.509 139.337 137.107 139.497L134.176 141.291C133.773 139.05 133.862 136.748 134.436 134.544C135.009 132.34 136.054 130.287 137.497 128.525C138.317 127.545 139.257 126.672 140.295 125.927C140.997 127.777 141.935 129.607 141.935 129.607Z" fill="#E6E6E6"/>
<path d="M134.383 138.801L131.728 138.8L130.465 128.567L134.383 128.567L134.383 138.801Z" fill="#FFB6B6"/>
<path d="M135.059 141.372L126.501 141.372V141.264C126.501 140.381 126.852 139.534 127.477 138.909C128.101 138.285 128.949 137.934 129.832 137.934H129.832L131.396 136.749L134.312 137.934L135.059 137.934L135.059 141.372Z" fill="#2F2E41"/>
<path d="M122.051 138.801L119.397 138.8L118.135 128.567L122.052 128.567L122.051 138.801Z" fill="#FFB6B6"/>
<path d="M122.728 141.372L114.17 141.372V141.264C114.17 140.381 114.521 139.534 115.146 138.909C115.771 138.285 116.618 137.934 117.501 137.934H117.501L119.065 136.749L121.981 137.934L122.729 137.934L122.728 141.372Z" fill="#2F2E41"/>
<path d="M120.903 82.8518L138.167 83.2832C141.446 85.0635 141.495 88.9165 140.421 93.4912C140.421 93.4912 140.784 96.2102 140.058 96.9353C139.333 97.6603 138.97 97.6603 139.333 98.9292C139.696 100.198 137.779 102.271 138.012 102.503C138.245 102.736 138.789 104.005 138.789 104.005L136.976 114.337C136.976 114.337 135.706 132.283 135.344 132.645C134.981 133.008 134.618 132.645 134.981 133.552C135.344 134.458 135.706 134.095 135.344 134.458C135.022 134.804 134.72 135.167 134.437 135.546H130.053C130.053 135.546 129.722 133.733 129.722 133.552C129.722 133.37 129.359 132.283 129.359 132.101C129.359 131.92 129.68 131.6 129.68 131.6C129.791 131.231 129.866 130.853 129.903 130.47C129.903 130.107 130.991 116.15 130.991 116.15L128.815 98.0229L123.557 115.787C123.557 115.787 123.557 131.376 123.194 131.739C122.831 132.101 122.831 131.92 123.013 132.645C123.194 133.37 123.919 133.189 123.375 133.733C122.831 134.277 122.65 133.37 122.831 134.277L123.013 135.183L117.572 135.261C117.572 135.261 116.847 133.733 117.21 133.189C117.572 132.645 117.551 132.794 117.108 131.904C116.666 131.014 116.484 130.833 116.666 130.651C116.847 130.47 116.847 129.506 116.847 129.506L117.754 112.162C117.754 112.162 117.935 93.8537 117.935 93.3099C117.949 93.0301 117.897 92.7509 117.785 92.4944V91.7563L118.479 89.1407L120.903 82.8518Z" fill="#69687F"/>
<path d="M131.273 46.9672C134.236 46.9672 136.637 44.5666 136.637 41.6052C136.637 38.6438 134.236 36.2432 131.273 36.2432C128.311 36.2432 125.909 38.6438 125.909 41.6052C125.909 44.5666 128.311 46.9672 131.273 46.9672Z" fill="#FFB6B6"/>
<path d="M128.591 50.5112C127.436 51.198 126.744 52.4598 126.348 53.7438C125.613 56.121 125.171 58.5788 125.031 61.063L124.612 68.5L119.421 84.3355C123.919 88.1408 140.83 85.2003 140.83 85.2003C140.83 85.2003 141.349 85.0274 140.83 84.5084C140.311 83.9895 139.806 84.4493 140.325 83.9303C140.844 83.4114 140.486 83.9895 140.313 83.4706C140.14 82.9517 140.313 83.2977 140.486 83.1247C140.659 82.9517 139.146 81.395 139.146 81.395L140.531 72.3053L142.261 53.9706C140.185 51.376 136.009 49.8466 136.009 49.8466L134.93 47.9051L129.535 48.3365L128.591 50.5112Z" fill="#D13F41"/>
<path d="M127.856 38.4583C128.063 38.46 128.27 38.487 128.471 38.539C128.867 38.6342 129.269 38.7016 129.675 38.7408C130.916 38.8576 132.083 39.387 132.989 40.2444C133.894 41.1019 134.486 42.2379 134.67 43.4711C134.982 43.1994 135.691 42.6997 136.272 43.1641C136.281 43.1715 136.286 43.1753 136.307 43.1656C136.693 42.9825 137.378 40.7291 137.399 38.7449C137.41 37.6918 137.244 36.3471 136.392 35.9212L136.347 35.8988L136.335 35.85C136.278 35.6131 135.642 35.2087 134.537 34.894C132.528 34.322 129.534 33.2079 127.848 34.8476C127.72 35.4004 127.305 36.5833 126.886 36.7174C126.421 36.8658 126.02 36.9939 125.957 37.5633C125.904 38.3737 125.908 39.1867 125.968 39.9965C126.126 39.501 126.435 39.0672 126.852 38.7564C127.148 38.5569 127.498 38.4529 127.856 38.4583Z" fill="#2F2E41"/>
<path d="M117.872 68.086L126.634 62.4765L122.221 56.6121L117.863 61.9706L104.285 62.8031C103.928 62.4502 103.475 62.2088 102.983 62.1083C102.491 62.0078 101.981 62.0526 101.514 62.2372C101.047 62.4219 100.644 62.7383 100.354 63.148C100.063 63.5577 99.8988 64.0429 99.8797 64.5445C99.8607 65.0461 99.988 65.5424 100.246 65.973C100.505 66.4035 100.883 66.7496 101.334 66.969C101.786 67.1885 102.291 67.2719 102.79 67.2091C103.288 67.1462 103.757 66.9398 104.14 66.615L117.872 68.086Z" fill="#FFB6B6"/>
<path d="M134.766 54.6468C135.275 57.7233 125.671 63.5982 125.671 63.5982C125.671 62.8761 119.939 68.3275 119.68 67.7286C118.945 66.0265 118.428 61.995 117.401 61.3498C116.813 60.9807 120.94 57.5141 120.94 57.5141C120.94 57.5141 123.1 55.3388 125.934 52.595C126.721 51.8044 127.696 51.2258 128.767 50.9129C129.837 50.5999 130.97 50.563 132.059 50.8054C132.059 50.8054 134.258 51.5703 134.766 54.6468Z" fill="#D13F41"/>
<path d="M152.827 69.5584L147.031 60.9202L141.259 65.455L146.711 69.6967L147.831 83.2489C147.485 83.6133 147.253 84.0702 147.163 84.5641C147.073 85.0579 147.129 85.5673 147.323 86.03C147.518 86.4928 147.843 86.889 148.259 87.1703C148.675 87.4517 149.164 87.6059 149.666 87.6144C150.168 87.6228 150.661 87.485 151.086 87.2178C151.512 86.9506 151.85 86.5655 152.06 86.1095C152.27 85.6535 152.342 85.1463 152.269 84.6498C152.195 84.1532 151.979 83.6887 151.646 83.3129L152.827 69.5584Z" fill="#FFB6B6"/>
<path d="M139.028 52.9584C142.094 52.385 148.173 61.8584 148.173 61.8584C147.451 61.8739 153.024 67.4869 152.431 67.7582C150.744 68.5291 146.723 69.1312 146.099 70.1717C145.743 70.7668 142.188 66.7161 142.188 66.7161C142.188 66.7161 139.967 64.6034 137.163 61.8285C136.355 61.0587 135.756 60.0973 135.42 59.0336C135.085 57.97 135.024 56.8387 135.243 55.7452C135.243 55.7452 135.962 53.5317 139.028 52.9584Z" fill="#D13F41"/>
<path d="M154.307 141.415C154.307 141.449 154.301 141.482 154.288 141.514C154.275 141.545 154.256 141.573 154.232 141.597C154.208 141.621 154.18 141.64 154.149 141.653C154.118 141.665 154.084 141.672 154.05 141.672H93.5635C93.4954 141.672 93.43 141.645 93.3819 141.597C93.3337 141.549 93.3067 141.483 93.3067 141.415C93.3067 141.347 93.3337 141.282 93.3819 141.234C93.43 141.186 93.4954 141.158 93.5635 141.158H154.05C154.084 141.158 154.118 141.165 154.149 141.178C154.18 141.191 154.208 141.21 154.232 141.233C154.256 141.257 154.275 141.286 154.288 141.317C154.301 141.348 154.307 141.381 154.307 141.415Z" fill="#130160"/>
</svg>
