<svg width="31" height="31" viewBox="0 0 31 31" fill="none" xmlns="http://www.w3.org/2000/svg">
<rect x="2.51953" y="2.51929" width="26" height="26" rx="4" fill="#D13F41"/>
<path d="M2 10L29 10" stroke="white" stroke-width="1.5"/>
<path d="M17 6L23.586 6" stroke="white" stroke-width="1.5" stroke-linecap="round"/>
<ellipse cx="7.12988" cy="5.9375" rx="0.9375" ry="0.9375" fill="white"/>
<ellipse cx="10.2549" cy="5.9375" rx="0.9375" ry="0.9375" fill="white"/>
<ellipse cx="13.3799" cy="5.9375" rx="0.9375" ry="0.9375" fill="white"/>
<path d="M19.8493 14.8464C20.7293 15.7264 20.7293 17.153 19.8493 18.0329L15.7382 22.1441C15.2848 22.5974 14.6885 22.88 14.0505 22.9437L11.8011 23.1683C11.644 23.1839 11.5118 23.0518 11.5275 22.8947L11.7521 20.6452C11.8158 20.0072 12.0983 19.4109 12.5517 18.9576L16.6628 14.8464C17.5427 13.9665 18.9694 13.9665 19.8493 14.8464Z" stroke="white" stroke-width="1.5"/>
</svg>
