<svg width="24" height="24" viewBox="0 0 24 24" fill="none" xmlns="http://www.w3.org/2000/svg">
<path d="M20 10.6667V17C20 19.2091 18.2091 21 16 21H7C4.79086 21 3 19.2091 3 17V8C3 5.79086 4.79086 4 7 4H13.3889" stroke="#D13F41" stroke-width="1.5" stroke-linecap="round"/>
<path d="M20.9444 3.22941C21.5898 3.87478 21.5898 4.92112 20.9444 5.56649L13.3019 13.2089C12.9653 13.5455 12.5589 13.8041 12.1114 13.9663L9.6273 14.8667C9.42795 14.939 9.23481 14.7459 9.30707 14.5465L10.2075 12.0624C10.3697 11.6149 10.6283 11.2085 10.9649 10.8719L18.6073 3.22941C19.2527 2.58405 20.299 2.58405 20.9444 3.22941Z" stroke="#D13F41" stroke-width="1.5"/>
</svg>
