<svg width="151" height="20" viewBox="0 0 151 20" fill="none" xmlns="http://www.w3.org/2000/svg">
<path d="M14.596 17.22C13.7893 17.22 13.1367 16.956 12.638 16.428C12.1393 15.9 11.7727 15.2547 11.538 14.492C11.318 13.7147 11.1127 12.9373 10.922 12.16C10.4527 10.224 9.71933 9.18267 8.722 9.036L6.764 11.346V17H4.564V2.128H2.892C2.20267 2.128 1.68933 2.282 1.352 2.59C1.01467 2.88333 0.846 3.23533 0.846 3.646C0.846 4.05667 0.948667 4.394 1.154 4.658C1.35933 4.90733 1.63067 5.032 1.968 5.032C2.32 5.032 2.57667 4.95133 2.738 4.79C2.89933 4.62867 3.024 4.47467 3.112 4.328C3.2 4.16667 3.288 4.086 3.376 4.086C3.464 4.086 3.508 4.196 3.508 4.416C3.508 4.636 3.33933 4.87067 3.002 5.12C2.67933 5.35467 2.298 5.472 1.858 5.472C1.418 5.472 1.066 5.30333 0.802 4.966C0.538 4.62867 0.406 4.21067 0.406 3.712C0.406 3.19867 0.618667 2.73667 1.044 2.326C1.484 1.90067 2.10733 1.688 2.914 1.688H6.764V10.642L12.264 4.218C13.7013 2.53133 15.124 1.688 16.532 1.688C16.8107 1.688 16.95 1.754 16.95 1.886C16.95 2.062 16.862 2.15 16.686 2.15C16.3047 2.15 15.96 2.18667 15.652 2.26C15.344 2.31867 14.904 2.53867 14.332 2.92C13.76 3.30133 13.1733 3.844 12.572 4.548L9.052 8.662C9.34533 8.63267 9.56533 8.618 9.712 8.618C10.46 8.618 11.0907 8.82333 11.604 9.234C12.132 9.63 12.506 10.1287 12.726 10.73C12.946 11.3167 13.144 11.962 13.32 12.666C13.496 13.37 13.6353 14.0227 13.738 14.624C13.9873 16.0173 14.4787 16.714 15.212 16.714C15.52 16.714 15.806 16.626 16.07 16.45C16.334 16.2593 16.5393 16.0687 16.686 15.878C16.8327 15.6873 16.9353 15.592 16.994 15.592C17.0527 15.592 17.082 15.6287 17.082 15.702C17.082 15.7607 17.06 15.834 17.016 15.922C16.576 16.7873 15.7693 17.22 14.596 17.22ZM21.4615 10.092C21.4615 10.444 21.5495 10.7887 21.7255 11.126C21.9162 11.4487 22.1729 11.61 22.4955 11.61C22.8329 11.61 23.0895 11.5733 23.2655 11.5C23.4562 11.412 23.5662 11.368 23.5955 11.368C23.6835 11.368 23.7275 11.4267 23.7275 11.544C23.7275 11.6613 23.6395 11.7787 23.4635 11.896C23.3022 11.9987 23.0015 12.05 22.5615 12.05C22.1362 12.05 21.7842 11.874 21.5055 11.522C21.2269 11.17 21.0655 10.7813 21.0215 10.356V17H18.8435V0.499999H21.0215V10.026C21.0802 9.102 21.5349 8.30267 22.3855 7.628C23.2362 6.93867 24.1235 6.594 25.0475 6.594C26.0155 6.594 26.7269 6.93133 27.1815 7.606C27.6509 8.266 27.8855 9.68133 27.8855 11.852V17H25.6855V12.424C25.6855 10.6933 25.5902 9.40267 25.3995 8.552C25.2235 7.70133 24.8789 7.276 24.3655 7.276C23.7202 7.276 23.0749 7.57667 22.4295 8.178C21.7842 8.77933 21.4615 9.41733 21.4615 10.092ZM33.7195 17.22C32.6635 17.22 31.7248 16.9267 30.9035 16.34C30.0968 15.7387 29.6935 14.91 29.6935 13.854C29.6935 13.238 29.8402 12.7027 30.1335 12.248C30.4415 11.7933 30.8302 11.456 31.2995 11.236C32.1648 10.796 33.0082 10.576 33.8295 10.576C34.6508 10.576 35.5822 10.796 36.6235 11.236C36.6088 9.53467 36.3962 8.40533 35.9855 7.848C35.5895 7.276 34.9735 6.99 34.1375 6.99C33.3015 6.99 32.5755 7.144 31.9595 7.452C31.3582 7.76 31.0575 8.17067 31.0575 8.684C31.0575 8.86 30.9768 8.948 30.8155 8.948C30.6688 8.948 30.5955 8.86733 30.5955 8.706C30.5955 8.09 30.9328 7.584 31.6075 7.188C32.2968 6.77733 33.3088 6.572 34.6435 6.572C37.4302 6.572 38.8235 8.21467 38.8235 11.5V17H36.6235V15.262C36.5208 15.834 36.1908 16.3033 35.6335 16.67C35.0762 17.0367 34.4382 17.22 33.7195 17.22ZM35.6555 13.106C36.1835 13.4727 36.5062 13.9787 36.6235 14.624V11.632C35.5675 11.2067 34.7022 10.994 34.0275 10.994C33.3675 10.994 32.8468 11.2727 32.4655 11.83C32.0842 12.3873 31.8935 13.0693 31.8935 13.876C31.8935 14.6827 32.0475 15.372 32.3555 15.944C32.6782 16.5013 33.1548 16.78 33.7855 16.78C34.4308 16.78 34.9955 16.6187 35.4795 16.296C35.9635 15.9587 36.2055 15.5627 36.2055 15.108C36.2055 14.316 35.9415 13.7733 35.4135 13.48C35.1935 13.348 35.0835 13.2233 35.0835 13.106C35.0835 12.9887 35.1348 12.93 35.2375 12.93C35.3402 12.93 35.4795 12.9887 35.6555 13.106ZM42.4116 16.296V1.688H44.6116V17.55C44.6116 18.7673 45.1616 19.398 46.2616 19.442C46.3349 19.442 46.3936 19.4713 46.4376 19.53C46.4962 19.5887 46.5256 19.662 46.5256 19.75C46.5256 19.838 46.4962 19.882 46.4376 19.882C45.9389 19.882 45.4842 19.7793 45.0736 19.574C44.6629 19.3687 44.3476 19.156 44.1276 18.936C43.9076 18.7307 43.6216 18.408 43.2696 17.968C42.9176 17.528 42.6169 17.176 42.3676 16.912C42.1182 16.648 41.8542 16.472 41.5756 16.384C41.3116 16.2813 41.0109 16.2227 40.6736 16.208C40.3362 16.1787 40.1676 16.1053 40.1676 15.988C40.1676 15.8267 40.3876 15.746 40.8276 15.746C41.2822 15.746 41.8102 15.9293 42.4116 16.296ZM50.6855 16.23C50.8908 16.3767 51.1475 16.5013 51.4555 16.604C51.7781 16.7067 52.1668 16.758 52.6215 16.758C53.0761 16.758 53.5601 16.6553 54.0735 16.45C54.5868 16.23 54.9461 15.9073 55.1515 15.482H55.7895C55.2175 16.6407 54.0148 17.22 52.1815 17.22C50.7735 17.22 49.5781 16.7213 48.5955 15.724C47.6275 14.712 47.1435 13.4507 47.1435 11.94C47.1435 10.4147 47.6568 9.146 48.6835 8.134C49.7101 7.10733 50.8248 6.594 52.0275 6.594C53.2448 6.594 54.1981 6.93133 54.8875 7.606C55.5915 8.266 55.9435 9.05067 55.9435 9.96C55.9435 10.8693 55.5695 11.676 54.8215 12.38C54.0735 13.084 53.0908 13.436 51.8735 13.436C50.6561 13.436 49.8055 12.9153 49.3215 11.874C49.3361 11.9767 49.3508 12.1967 49.3655 12.534C49.3948 12.8713 49.4168 13.1353 49.4315 13.326C49.4461 13.5167 49.4828 13.7807 49.5415 14.118C49.6148 14.4553 49.6881 14.7267 49.7615 14.932C49.8495 15.1373 49.9741 15.372 50.1355 15.636C50.2968 15.8853 50.4801 16.0833 50.6855 16.23ZM54.0515 9.85C54.0515 7.958 53.3328 7.012 51.8955 7.012C51.1915 7.012 50.6121 7.35667 50.1575 8.046C49.7175 8.72067 49.4681 9.542 49.4095 10.51C49.5855 10.0993 49.8495 9.76933 50.2015 9.52C50.5681 9.27067 50.9421 9.146 51.3235 9.146C51.7195 9.146 51.9175 9.21933 51.9175 9.366C51.9175 9.498 51.8295 9.564 51.6535 9.564C50.9788 9.608 50.4801 9.77667 50.1575 10.07C49.8495 10.3633 49.6955 10.7593 49.6955 11.258C49.6955 11.7567 49.8715 12.182 50.2235 12.534C50.5901 12.8713 51.0155 13.04 51.4995 13.04C52.2915 13.04 52.9148 12.7247 53.3695 12.094C53.8241 11.4487 54.0515 10.7007 54.0515 9.85ZM64.8725 17V15.746C63.5965 16.7287 62.4525 17.22 61.4405 17.22C60.6045 17.22 59.7612 16.868 58.9105 16.164C58.4705 15.7973 58.1112 15.24 57.8325 14.492C57.5539 13.744 57.4145 12.8713 57.4145 11.874C57.4145 10.202 57.8032 8.904 58.5805 7.98C59.3725 7.056 60.4359 6.594 61.7705 6.594C62.5185 6.594 63.1859 6.76267 63.7725 7.1C64.3592 7.43733 64.7259 7.90667 64.8725 8.508V0.499999H67.0725V17H64.8725ZM59.6145 12.16C59.6145 13.4507 59.8712 14.514 60.3845 15.35C60.9125 16.1713 61.5065 16.582 62.1665 16.582C62.8265 16.582 63.7285 16.12 64.8725 15.196V9.608C64.7699 10.048 64.5572 10.4 64.2345 10.664C63.9265 10.928 63.6919 11.06 63.5305 11.06C63.4132 11.06 63.3545 10.9867 63.3545 10.84C63.3545 10.7667 63.4865 10.642 63.7505 10.466C64.2492 10.114 64.4985 9.66667 64.4985 9.124C64.4985 8.56667 64.2272 8.08267 63.6845 7.672C63.1565 7.24667 62.6065 7.034 62.0345 7.034C60.4212 7.034 59.6145 8.74267 59.6145 12.16ZM80.5847 11.94C79.1473 11.94 78.1207 11.4193 77.5047 10.378C77.1673 9.82067 76.9693 9.3 76.9107 8.816C76.8373 8.22933 76.8007 7.68667 76.8007 7.188C76.8007 6.67467 76.7933 6.25667 76.7787 5.934C76.7787 5.59667 76.7567 5.186 76.7127 4.702C76.6833 4.20333 76.6247 3.82933 76.5367 3.58C76.4633 3.316 76.3607 3.052 76.2287 2.788C75.9647 2.28933 75.5393 2.04 74.9527 2.04C74.366 2.04 73.9407 2.23067 73.6767 2.612C73.4127 2.97867 73.2807 3.36 73.2807 3.756C73.2807 4.152 73.376 4.51133 73.5667 4.834C73.7573 5.15667 74.0873 5.318 74.5567 5.318C74.7767 5.318 74.982 5.26667 75.1727 5.164C75.3633 5.06133 75.466 5.01 75.4807 5.01C75.5833 5.01 75.6347 5.09067 75.6347 5.252C75.6347 5.41333 75.4953 5.538 75.2167 5.626C74.9527 5.714 74.696 5.758 74.4467 5.758C73.9773 5.758 73.5887 5.57467 73.2807 5.208C72.9873 4.82667 72.8407 4.40133 72.8407 3.932C72.8407 3.15467 73.0753 2.55333 73.5447 2.128C74.0287 1.688 74.608 1.468 75.2827 1.468C75.972 1.468 76.632 1.71733 77.2627 2.216C77.908 2.7 78.326 3.316 78.5167 4.064C78.766 4.988 78.8907 6.528 78.8907 8.684C78.92 9.71067 79.0593 10.4367 79.3087 10.862C79.5727 11.2873 80.0493 11.5 80.7387 11.5C82.044 11.5 83.1073 10.884 83.9287 9.652C84.75 8.40533 85.1607 6.946 85.1607 5.274C85.1607 4.36467 84.9553 3.61667 84.5447 3.03C84.1487 2.42867 83.584 2.128 82.8507 2.128C82.132 2.128 81.5453 2.35533 81.0907 2.81C80.6507 3.25 80.4307 3.81467 80.4307 4.504C80.4307 4.84133 80.5333 5.14933 80.7387 5.428C80.944 5.70667 81.2153 5.846 81.5527 5.846C81.6847 5.846 81.846 5.81667 82.0367 5.758C82.242 5.69933 82.3593 5.67 82.3887 5.67C82.506 5.67 82.5647 5.736 82.5647 5.868C82.5647 6.11733 82.33 6.24933 81.8607 6.264L81.6407 6.286C81.1127 6.286 80.702 6.10267 80.4087 5.736C80.13 5.36933 79.9907 4.91467 79.9907 4.372C79.9907 3.56533 80.2473 2.91267 80.7607 2.414C81.2887 1.91533 81.9413 1.666 82.7187 1.666C83.848 1.666 84.6327 2.106 85.0727 2.986C85.5273 3.866 85.7547 5.076 85.7547 6.616V13.194C85.7547 14.3967 85.3 15.372 84.3907 16.12C83.4813 16.8533 82.418 17.22 81.2007 17.22C79.998 17.22 78.9713 16.89 78.1207 16.23C77.27 15.57 76.8447 14.7267 76.8447 13.7C76.8447 13.348 76.896 13.0547 76.9987 12.82C77.1013 12.5853 77.226 12.468 77.3727 12.468C77.49 12.468 77.5487 12.5267 77.5487 12.644C77.5487 12.7613 77.5047 12.9373 77.4167 13.172C77.3287 13.392 77.2847 13.6047 77.2847 13.81C77.2847 14.602 77.622 15.2913 78.2967 15.878C78.986 16.4647 79.7487 16.758 80.5847 16.758C81.4207 16.758 82.11 16.3987 82.6527 15.68C83.21 14.9467 83.4887 14.1327 83.4887 13.238V10.84C82.5353 11.5733 81.5673 11.94 80.5847 11.94ZM87.9208 11.918C87.9208 10.422 88.4341 9.168 89.4608 8.156C90.5021 7.144 91.8295 6.638 93.4428 6.638C95.0708 6.638 96.3908 7.11467 97.4028 8.068C98.4148 9.02133 98.9208 10.2753 98.9208 11.83C98.9208 12.754 98.7448 13.5753 98.3928 14.294C98.0408 14.998 97.5861 15.548 97.0288 15.944C95.8848 16.7213 94.6895 17.11 93.4428 17.11C92.2255 17.11 91.0375 16.7067 89.8788 15.9C89.3068 15.504 88.8375 14.9613 88.4708 14.272C88.1041 13.568 87.9208 12.7833 87.9208 11.918ZM94.1908 10.51L93.5528 10.378C93.2741 10.378 93.0321 10.5027 92.8268 10.752C92.6361 10.9867 92.5408 11.2727 92.5408 11.61C92.5408 11.9327 92.6875 12.2553 92.9808 12.578C93.2741 12.9007 93.6848 13.062 94.2128 13.062C94.7555 13.062 95.2835 12.8053 95.7968 12.292C96.3248 11.764 96.5888 11.0233 96.5888 10.07C96.5888 9.11667 96.2808 8.38333 95.6648 7.87C95.0635 7.342 94.3008 7.078 93.3768 7.078C92.7901 7.078 92.2841 7.19533 91.8588 7.43C91.4335 7.65 91.1108 7.92133 90.8908 8.244C90.6708 8.56667 90.5021 8.97733 90.3848 9.476C90.2088 10.2093 90.1208 11.06 90.1208 12.028C90.1208 15.1227 91.2501 16.67 93.5088 16.67C94.8435 16.67 95.7235 16.164 96.1488 15.152C96.5155 14.2867 96.6988 13.1647 96.6988 11.786C96.5668 12.1673 96.2588 12.5487 95.7748 12.93C95.3055 13.3113 94.7848 13.502 94.2128 13.502C93.6408 13.502 93.1421 13.3113 92.7168 12.93C92.3061 12.534 92.1008 12.094 92.1008 11.61C92.1008 11.126 92.2328 10.73 92.4968 10.422C92.7608 10.0993 93.1348 9.938 93.6188 9.938C94.1175 9.938 94.3668 10.0773 94.3668 10.356C94.3668 10.4587 94.3081 10.51 94.1908 10.51ZM107.356 13.722C107.356 13.37 107.261 13.0327 107.07 12.71C106.894 12.3727 106.638 12.204 106.3 12.204C105.978 12.204 105.721 12.248 105.53 12.336C105.354 12.4093 105.252 12.446 105.222 12.446C105.134 12.446 105.09 12.3873 105.09 12.27C105.09 12.1527 105.171 12.0427 105.332 11.94C105.508 11.8227 105.809 11.764 106.234 11.764C106.674 11.764 107.034 11.9473 107.312 12.314C107.606 12.6807 107.767 13.084 107.796 13.524V6.814H109.974V17H107.796V13.788C107.738 14.712 107.283 15.5187 106.432 16.208C105.582 16.8827 104.694 17.22 103.77 17.22C102.802 17.22 102.084 16.89 101.614 16.23C101.16 15.5553 100.932 14.1327 100.932 11.962V6.814H103.132V11.39C103.132 13.1207 103.22 14.4113 103.396 15.262C103.587 16.1127 103.939 16.538 104.452 16.538C105.098 16.538 105.743 16.2373 106.388 15.636C107.034 15.0347 107.356 14.3967 107.356 13.722ZM116.227 17.22C115.244 17.22 114.313 16.978 113.433 16.494C112.553 15.9953 112.113 15.306 112.113 14.426C112.113 14.1913 112.171 13.9713 112.289 13.766C112.406 13.5607 112.553 13.458 112.729 13.458C112.919 13.458 113.066 13.5167 113.169 13.634C113.271 13.7513 113.323 13.8687 113.323 13.986C113.323 14.1033 113.249 14.272 113.103 14.492C112.956 14.6973 112.883 14.866 112.883 14.998C112.883 15.4527 113.271 15.8633 114.049 16.23C114.826 16.5967 115.567 16.78 116.271 16.78C116.989 16.78 117.679 16.5453 118.339 16.076C119.013 15.6067 119.351 15.0127 119.351 14.294C119.351 13.634 118.984 13.172 118.251 12.908C117.781 12.7173 116.982 12.534 115.853 12.358C114.723 12.1673 113.843 11.8593 113.213 11.434C112.582 11.0087 112.267 10.3487 112.267 9.454C112.267 8.91133 112.406 8.442 112.685 8.046C112.963 7.65 113.323 7.34933 113.763 7.144C114.628 6.748 115.479 6.55 116.315 6.55C117.165 6.55 117.913 6.69667 118.559 6.99C119.219 7.28333 119.651 7.65 119.857 8.09C119.945 8.29533 119.989 8.47133 119.989 8.618C119.989 8.97 119.805 9.146 119.439 9.146C119.043 9.146 118.837 8.904 118.823 8.42C118.793 7.87733 118.581 7.50333 118.185 7.298C117.686 7.09267 117.055 6.99 116.293 6.99C115.545 6.99 114.855 7.17333 114.225 7.54C113.594 7.892 113.279 8.34667 113.279 8.904C113.279 9.57867 113.887 9.96 115.105 10.048C116.322 10.1213 117.451 10.334 118.493 10.686C119.021 10.862 119.453 11.1993 119.791 11.698C120.143 12.182 120.319 12.776 120.319 13.48C120.319 14.1693 120.194 14.756 119.945 15.24C119.695 15.724 119.365 16.1053 118.955 16.384C118.133 16.9413 117.224 17.22 116.227 17.22ZM125.873 17.22C124.891 17.22 123.959 16.978 123.079 16.494C122.199 15.9953 121.759 15.306 121.759 14.426C121.759 14.1913 121.818 13.9713 121.935 13.766C122.053 13.5607 122.199 13.458 122.375 13.458C122.566 13.458 122.713 13.5167 122.815 13.634C122.918 13.7513 122.969 13.8687 122.969 13.986C122.969 14.1033 122.896 14.272 122.749 14.492C122.603 14.6973 122.529 14.866 122.529 14.998C122.529 15.4527 122.918 15.8633 123.695 16.23C124.473 16.5967 125.213 16.78 125.917 16.78C126.636 16.78 127.325 16.5453 127.985 16.076C128.66 15.6067 128.997 15.0127 128.997 14.294C128.997 13.634 128.631 13.172 127.897 12.908C127.428 12.7173 126.629 12.534 125.499 12.358C124.37 12.1673 123.49 11.8593 122.859 11.434C122.229 11.0087 121.913 10.3487 121.913 9.454C121.913 8.91133 122.053 8.442 122.331 8.046C122.61 7.65 122.969 7.34933 123.409 7.144C124.275 6.748 125.125 6.55 125.961 6.55C126.812 6.55 127.56 6.69667 128.205 6.99C128.865 7.28333 129.298 7.65 129.503 8.09C129.591 8.29533 129.635 8.47133 129.635 8.618C129.635 8.97 129.452 9.146 129.085 9.146C128.689 9.146 128.484 8.904 128.469 8.42C128.44 7.87733 128.227 7.50333 127.831 7.298C127.333 7.09267 126.702 6.99 125.939 6.99C125.191 6.99 124.502 7.17333 123.871 7.54C123.241 7.892 122.925 8.34667 122.925 8.904C122.925 9.57867 123.534 9.96 124.751 10.048C125.969 10.1213 127.098 10.334 128.139 10.686C128.667 10.862 129.1 11.1993 129.437 11.698C129.789 12.182 129.965 12.776 129.965 13.48C129.965 14.1693 129.841 14.756 129.591 15.24C129.342 15.724 129.012 16.1053 128.601 16.384C127.78 16.9413 126.871 17.22 125.873 17.22ZM134.926 16.23C135.131 16.3767 135.388 16.5013 135.696 16.604C136.018 16.7067 136.407 16.758 136.862 16.758C137.316 16.758 137.8 16.6553 138.314 16.45C138.827 16.23 139.186 15.9073 139.392 15.482H140.03C139.458 16.6407 138.255 17.22 136.422 17.22C135.014 17.22 133.818 16.7213 132.836 15.724C131.868 14.712 131.384 13.4507 131.384 11.94C131.384 10.4147 131.897 9.146 132.924 8.134C133.95 7.10733 135.065 6.594 136.268 6.594C137.485 6.594 138.438 6.93133 139.128 7.606C139.832 8.266 140.184 9.05067 140.184 9.96C140.184 10.8693 139.81 11.676 139.062 12.38C138.314 13.084 137.331 13.436 136.114 13.436C134.896 13.436 134.046 12.9153 133.562 11.874C133.576 11.9767 133.591 12.1967 133.606 12.534C133.635 12.8713 133.657 13.1353 133.672 13.326C133.686 13.5167 133.723 13.7807 133.782 14.118C133.855 14.4553 133.928 14.7267 134.002 14.932C134.09 15.1373 134.214 15.372 134.376 15.636C134.537 15.8853 134.72 16.0833 134.926 16.23ZM138.292 9.85C138.292 7.958 137.573 7.012 136.136 7.012C135.432 7.012 134.852 7.35667 134.398 8.046C133.958 8.72067 133.708 9.542 133.65 10.51C133.826 10.0993 134.09 9.76933 134.442 9.52C134.808 9.27067 135.182 9.146 135.564 9.146C135.96 9.146 136.158 9.21933 136.158 9.366C136.158 9.498 136.07 9.564 135.894 9.564C135.219 9.608 134.72 9.77667 134.398 10.07C134.09 10.3633 133.936 10.7593 133.936 11.258C133.936 11.7567 134.112 12.182 134.464 12.534C134.83 12.8713 135.256 13.04 135.74 13.04C136.532 13.04 137.155 12.7247 137.61 12.094C138.064 11.4487 138.292 10.7007 138.292 9.85ZM145.461 8.178V17H143.261V8.178H141.039V7.738H143.261V5.604C143.261 3.99067 143.737 2.73667 144.691 1.842C145.659 0.947332 146.656 0.499999 147.683 0.499999C148.357 0.499999 148.944 0.705332 149.443 1.116C149.956 1.52667 150.213 2.05467 150.213 2.7C150.213 3.34533 150.015 3.844 149.619 4.196C149.237 4.53333 148.805 4.702 148.321 4.702C147.851 4.702 147.448 4.57733 147.111 4.328C146.788 4.064 146.627 3.76333 146.627 3.426C146.627 3.074 146.678 2.78067 146.781 2.546C146.898 2.31133 147.03 2.194 147.177 2.194C147.323 2.194 147.397 2.24533 147.397 2.348C147.397 2.392 147.338 2.48733 147.221 2.634C147.118 2.766 147.067 2.986 147.067 3.294C147.067 3.602 147.206 3.844 147.485 4.02C147.763 4.196 148.071 4.284 148.409 4.284C148.761 4.284 149.076 4.13733 149.355 3.844C149.633 3.536 149.773 3.14 149.773 2.656C149.773 2.15733 149.553 1.74667 149.113 1.424C148.673 1.08667 148.167 0.918 147.595 0.918C146.773 0.918 146.209 1.32867 145.901 2.15C145.607 2.95667 145.461 4.29867 145.461 6.176V7.738H147.661V8.178H145.461Z" fill="white"/>
</svg>
