<svg width="244" height="240" viewBox="0 0 244 240" fill="none" xmlns="http://www.w3.org/2000/svg">
<rect x="9.50693" y="63.2315" width="6.36094" height="6.36094" rx="3.18047" transform="rotate(159.041 9.50693 63.2315)" stroke="#9E9FA9" stroke-width="2"/>
<mask id="mask0_232_913" style="mask-type:alpha" maskUnits="userSpaceOnUse" x="5" y="71" width="71" height="71">
<rect x="1" y="88.8208" width="61.0026" height="61.0026" rx="16" transform="rotate(-20.959 1 88.8208)" fill="#FFC467"/>
</mask>
<g mask="url(#mask0_232_913)">
<rect x="1" y="88.8208" width="61.0026" height="61.0026" rx="16" transform="rotate(-20.959 1 88.8208)" fill="#FFC467"/>
<rect opacity="0.15" x="28.2192" y="80.8481" width="145" height="91" rx="20" transform="rotate(-4.49304 28.2192 80.8481)" fill="#D13F41"/>
</g>
<rect opacity="0.2" x="52.9023" y="79" width="145" height="91" rx="20" transform="rotate(8.15099 52.9023 79)" fill="#5665FF"/>
<rect x="33.2192" y="78.8481" width="145" height="91" rx="20" transform="rotate(-4.49304 33.2192 78.8481)" fill="#D13F41"/>
<path opacity="0.11" d="M35.2556 104.768C34.3903 93.7564 42.6156 84.1281 53.6274 83.2628L158.305 75.0373C169.316 74.172 178.945 82.3974 179.81 93.4091L180.045 96.3999L116.346 125.057C112.117 126.959 107.358 127.333 102.884 126.115L35.4906 107.759L35.2556 104.768Z" fill="#5B5B5B"/>
<path d="M34.7859 98.7867C33.9206 87.7749 42.1459 78.1467 53.1577 77.2814L157.835 69.0559C168.847 68.1906 178.475 76.4159 179.34 87.4277L179.732 92.4123L113.576 114.466C110.482 115.497 107.183 115.757 103.967 115.221L35.1776 103.771L34.7859 98.7867Z" fill="#FFB6B6" fill-opacity="0.5"/>
<circle opacity="0.2" cx="3" cy="3" r="3" transform="matrix(1 0 0 -1 100 221)" fill="#27308C"/>
<path d="M55.5868 50.6361C54.4395 47.7786 56.8157 44.7506 59.864 45.1858L68.4373 46.4095C71.4856 46.8447 72.9198 50.4165 71.0188 52.8388L65.6723 59.6517C63.7713 62.074 59.961 61.5301 58.8136 58.6727L55.5868 50.6361Z" fill="#FF9E87"/>
<path d="M31.903 166.37C30.6973 163.367 33.1944 160.185 36.3978 160.642C39.6012 161.1 41.1083 164.853 39.1106 167.399C37.1129 169.944 33.1087 169.373 31.903 166.37Z" fill="#FF9E87"/>
<path d="M213.368 142.999C211.023 137.16 215.879 130.972 222.108 131.861C228.337 132.75 231.268 140.049 227.383 144.999C223.499 149.949 215.712 148.838 213.368 142.999Z" fill="#FF9E87"/>
<path opacity="0.2" d="M165.325 210.468C163.165 208.273 164.191 204.563 167.172 203.79L175.554 201.616C178.535 200.843 181.235 203.586 180.414 206.554L178.105 214.901C177.285 217.869 173.559 218.835 171.399 216.64L165.325 210.468Z" fill="#FF9E87"/>
<path opacity="0.3" d="M200.76 55.5844C197.919 62.7757 193.403 43.5391 186.211 40.6984C179.02 37.8578 161.049 39.0723 163.89 31.8811C166.73 24.6898 187.689 24.0789 194.88 26.9195C202.071 29.7602 203.601 48.3932 200.76 55.5844Z" fill="#03A9F4"/>
<path d="M134.782 2.37185C132.545 1.42583 126.995 1.31123 122.691 8.42101C118.387 15.5308 112.031 15.8195 109.391 15.0751" stroke="#FF83CC" stroke-width="3" stroke-linecap="round"/>
<path d="M44.659 238.415C44.4122 237.543 43.1794 235.958 40.2219 236.591C37.2645 237.225 35.7358 235.518 35.3412 234.585" stroke="#FF83CC" stroke-width="3" stroke-linecap="round"/>
<path d="M223.016 191.146C222.678 192.545 223.148 195.7 227.734 197.129C232.32 198.558 233.104 202.112 232.923 203.71" stroke="#FF83CC" stroke-width="3" stroke-linecap="round"/>
</svg>
