<svg width="220" height="208" viewBox="0 0 220 208" fill="none" xmlns="http://www.w3.org/2000/svg">
<rect x="31" y="63.8208" width="61.0026" height="61.0026" rx="16" transform="rotate(-20.959 31 63.8208)" fill="#FFF4E9"/>
<circle cx="94.9709" cy="150.971" r="6.625" transform="rotate(-13.2939 94.9709 150.971)" fill="#19216F"/>
<path opacity="0.1" fill-rule="evenodd" clip-rule="evenodd" d="M96.5981 68.3924C96.5737 68.0341 96.5197 67.6731 96.4344 67.3121C95.5931 63.7513 92.0244 61.5467 88.4635 62.388C84.9027 63.2294 82.6981 66.798 83.5395 70.3589C83.5751 70.5098 83.6157 70.6584 83.661 70.8043C74.3203 75.5558 69.0207 86.2238 71.533 96.8567L74.3173 108.641C74.507 109.931 74.6415 111.178 74.7242 112.393L109.5 99.5173C114.933 97.5058 118.027 91.7731 116.727 86.1277C114.459 76.2753 106.135 69.3849 96.5981 68.3924Z" fill="#151A53"/>
<circle cx="91.987" cy="67.8357" r="6.625" transform="rotate(-13.2939 91.987 67.8357)" fill="#949EFF"/>
<path opacity="0.1" d="M103.097 102.991C99.8737 90.5373 107.356 77.829 119.809 74.6059C132.263 71.3827 144.971 78.8652 148.194 91.3185L151.211 102.976C153.92 110.087 157.385 115.117 162.051 119.935C167.731 125.8 165.701 135.723 157.797 137.769L117.114 148.299C109.233 150.338 102.681 142.71 104.883 134.873C106.734 128.284 107.384 122.171 106.114 114.648L103.097 102.991Z" fill="#3847E5"/>
<path d="M75.5484 97.9222C72.5904 85.4032 80.3411 72.8568 92.8601 69.8988C105.379 66.9409 117.925 74.6916 120.883 87.2105L123.652 98.9295C126.209 106.097 129.567 111.199 134.129 116.115C139.683 122.099 137.443 131.977 129.498 133.855L88.6002 143.518C80.6778 145.39 74.2893 137.624 76.6569 129.836C78.6473 123.288 79.4273 117.19 78.3173 109.641L75.5484 97.9222Z" fill="#D13F41"/>
<circle opacity="0.1" cx="5" cy="5" r="5" transform="matrix(1 0 0 -1 160 93)" fill="#27308C"/>
<circle opacity="0.2" cx="3" cy="3" r="3" transform="matrix(1 0 0 -1 76 204)" fill="#27308C"/>
<path d="M31.5867 33.6361C30.4393 30.7786 32.8156 27.7506 35.8639 28.1858L44.4372 29.4095C47.4855 29.8447 48.9197 33.4165 47.0187 35.8388L41.6722 42.6517C39.7712 45.074 35.9608 44.5301 34.8135 41.6727L31.5867 33.6361Z" fill="#FF9E87"/>
<path d="M7.90299 149.37C6.69729 146.367 9.1944 143.185 12.3978 143.642C15.6012 144.1 17.1083 147.853 15.1106 150.399C13.1129 152.944 9.10869 152.373 7.90299 149.37Z" fill="#FF9E87"/>
<path d="M189.368 125.999C187.023 120.16 191.879 113.972 198.108 114.861C204.337 115.75 207.268 123.049 203.383 127.999C199.499 132.949 191.712 131.838 189.368 125.999Z" fill="#FF9E87"/>
<path opacity="0.2" d="M141.325 193.468C139.165 191.273 140.191 187.563 143.172 186.79L151.554 184.616C154.535 183.843 157.235 186.586 156.414 189.554L154.105 197.901C153.285 200.869 149.559 201.835 147.399 199.64L141.325 193.468Z" fill="#FF9E87"/>
<path opacity="0.3" d="M176.76 38.5844C173.919 45.7757 169.403 26.5391 162.211 23.6984C155.02 20.8578 137.049 22.0723 139.89 14.8811C142.73 7.6898 163.689 7.07889 170.88 9.91955C178.071 12.7602 179.601 31.3932 176.76 38.5844Z" fill="#03A9F4"/>
</svg>
