<svg width="157" height="173" viewBox="0 0 157 173" fill="none" xmlns="http://www.w3.org/2000/svg">
<rect x="19.4175" y="1" width="71" height="93" rx="16" fill="#D13F41"/>
<rect x="29.4175" y="13" width="21" height="21" rx="6" fill="white"/>
<path d="M32.4175 49H77.4175" stroke="white" stroke-width="5" stroke-linecap="square"/>
<path d="M32.4175 64H77.4175" stroke="white" stroke-width="5" stroke-linecap="square"/>
<path d="M32.4175 79H60.4175" stroke="white" stroke-width="5" stroke-linecap="square"/>
<circle cx="84.3694" cy="94.2721" r="22.3052" transform="rotate(28.6511 84.3694 94.2721)" fill="#AFECFE" stroke="#AFECFE" stroke-width="8"/>
<path d="M73.5512 114.62L65.8352 128.742" stroke="#AFECFE" stroke-width="8" stroke-linecap="round"/>
<path d="M71.8221 118.1L68.8994 138.613L55.7778 131.649L71.8221 118.1Z" fill="#AFECFE"/>
<path d="M53.286 136.281L66.273 143.173L58.71 156.756C56.7348 160.303 52.2264 161.636 48.6401 159.732C45.0539 157.829 43.7478 153.411 45.723 149.863L53.286 136.281Z" fill="#AFECFE"/>
<path d="M89.6195 89.3179L79.3658 100.066" stroke="black" stroke-width="5" stroke-linecap="round"/>
<path d="M79.119 89.5649L89.8672 99.8186" stroke="#150B3D" stroke-width="5" stroke-linecap="round"/>
<circle opacity="0.1" cx="4.2038" cy="4.2038" r="4.2038" transform="matrix(1 0 0 -1 106.793 58.4768)" fill="#D13F41"/>
<circle opacity="0.2" cx="2.52228" cy="2.52228" r="2.52228" transform="matrix(1 0 0 -1 36.1699 172.82)" fill="#D13F41"/>
<path d="M9.32915 34.8127C8.18182 31.9552 10.558 28.9273 13.6063 29.3624L18.6301 30.0795C21.6784 30.5146 23.1126 34.0865 21.2116 36.5088L18.0787 40.501C16.1777 42.9233 12.3673 42.3794 11.22 39.5219L9.32915 34.8127Z" fill="#FF9E87"/>
<path d="M6.6616 115.96C5.64789 113.435 7.74737 110.76 10.4406 111.144C13.1339 111.529 14.4011 114.684 12.7215 116.825C11.0419 118.965 7.6753 118.484 6.6616 115.96Z" fill="#FF9E87"/>
<path d="M130.644 96.3101C128.673 91.4007 132.756 86.1985 137.993 86.9461C143.23 87.6936 145.694 93.8303 142.428 97.9921C139.162 102.154 132.615 101.219 130.644 96.3101Z" fill="#FF9E87"/>
<path opacity="0.2" d="M98.5923 145.414C96.4325 143.219 97.4585 139.509 100.439 138.736L105.351 137.462C108.332 136.689 111.032 139.433 110.211 142.4L108.858 147.292C108.037 150.259 104.312 151.226 102.152 149.031L98.5923 145.414Z" fill="#FF9E87"/>
<path opacity="0.3" d="M137.374 37.2901C133.74 42.68 133.515 26.0684 128.125 22.4342C122.735 18.8 107.76 16.5437 111.394 11.1537C115.028 5.76366 132.346 9.05642 137.736 12.6906C143.126 16.3248 141.009 31.9001 137.374 37.2901Z" fill="#03A9F4"/>
</svg>
