<svg width="20" height="21" viewBox="0 0 20 21" fill="none" xmlns="http://www.w3.org/2000/svg">
<rect x="0.75" y="1.75" width="9.5" height="9.5" rx="2.25" stroke="#D13F41" stroke-width="1.5"/>
<path d="M2 14V14C2 16.7614 4.23858 19 7 19V19" stroke="#D13F41" stroke-width="1.5" stroke-linecap="round"/>
<path d="M13 3V3C15.7614 3 18 5.23858 18 8V8" stroke="#D13F41" stroke-width="1.5" stroke-linecap="round"/>
<rect x="9.75" y="10.75" width="9.5" height="9.5" rx="2.25" stroke="#D13F41" stroke-width="1.5"/>
<path d="M6.96582 9.37598L6.55176 8.0166H4.46973L4.05566 9.37598H2.75098L4.7666 3.6416H6.24707L8.27051 9.37598H6.96582ZM6.2627 7.00098L5.84863 5.67285C5.82259 5.58431 5.78743 5.47103 5.74316 5.33301C5.7015 5.19238 5.65853 5.05046 5.61426 4.90723C5.57259 4.76139 5.53874 4.63509 5.5127 4.52832C5.48665 4.63509 5.4502 4.7679 5.40332 4.92676C5.35905 5.08301 5.31608 5.23145 5.27441 5.37207C5.23275 5.5127 5.2028 5.61296 5.18457 5.67285L4.77441 7.00098H6.2627Z" fill="#FF9228"/>
</svg>
