<svg width="24" height="27" viewBox="0 0 24 27" fill="none" xmlns="http://www.w3.org/2000/svg">
<path d="M21.75 12L21.75 11.25L20.25 11.25L20.25 12L21.75 12ZM20.25 17C20.25 17.4142 20.5858 17.75 21 17.75C21.4142 17.75 21.75 17.4142 21.75 17L20.25 17ZM20.25 12L20.25 17L21.75 17L21.75 12L20.25 12Z" fill="#D13F41"/>
<path d="M6 13V20.2706V20.2706C9.43862 23.2676 14.5614 23.2676 18 20.2706V20.2706V13" stroke="#D13F41" stroke-width="1.5"/>
<path d="M9.61203 7.99157C11.1119 7.22554 12.8881 7.22554 14.388 7.99157L21.3553 11.5501L14.388 15.1086C12.8881 15.8746 11.1119 15.8746 9.61203 15.1086L2.6447 11.5501L9.61203 7.99157Z" stroke="#D13F41" stroke-width="1.5"/>
</svg>
