<svg width="24" height="24" viewBox="0 0 24 24" fill="none" xmlns="http://www.w3.org/2000/svg">
<path d="M6.75806 11.9326L3.42726 17.7017C3.2435 18.02 3.45439 18.4211 3.82075 18.4502L6.24985 18.6427C6.40003 18.6546 6.53683 18.7336 6.62224 18.8577L8.00355 20.8651C8.21189 21.1679 8.66471 21.1499 8.84847 20.8317L12.1793 15.0626" stroke="#D13F41" stroke-width="1.5"/>
<path d="M17.2981 12.0469L20.6052 17.7749C20.7886 18.0927 20.5787 18.4933 20.213 18.5232L17.7848 18.7221C17.6355 18.7343 17.4996 18.8127 17.4144 18.9359L16.0281 20.9393C15.8193 21.2411 15.3674 21.2226 15.184 20.9048L11.8769 15.1768" stroke="#D13F41" stroke-width="1.5"/>
<rect x="5.75" y="2.75" width="12.5" height="12.5" rx="6.25" stroke="#D13F41" stroke-width="1.5"/>
<path d="M11.3342 6.08018C11.5437 5.43527 12.4561 5.43527 12.6656 6.08019L12.9584 6.98116C13.0521 7.26957 13.3209 7.46484 13.6241 7.46484H14.5715C15.2496 7.46484 15.5315 8.33258 14.9829 8.73116L14.2165 9.28799C13.9712 9.46624 13.8685 9.7822 13.9622 10.0706L14.255 10.9716C14.4645 11.6165 13.7264 12.1528 13.1778 11.7542L12.4114 11.1974C12.166 11.0191 11.8338 11.0191 11.5885 11.1974L10.822 11.7542C10.2734 12.1528 9.53531 11.6165 9.74486 10.9716L10.0376 10.0706C10.1313 9.7822 10.0287 9.46624 9.78331 9.28799L9.0169 8.73116C8.4683 8.33258 8.75024 7.46484 9.42835 7.46484H10.3757C10.6789 7.46484 10.9477 7.26957 11.0414 6.98116L11.3342 6.08018Z" fill="#FF9228"/>
</svg>
