<svg width="24" height="24" viewBox="0 0 24 24" fill="none" xmlns="http://www.w3.org/2000/svg">
<circle cx="12" cy="4" r="1.25" stroke="#D13F41" stroke-width="1.5"/>
<circle cx="20" cy="12" r="1.25" transform="rotate(90 20 12)" stroke="#D13F41" stroke-width="1.5"/>
<circle cx="17.6569" cy="17.6572" r="1.25" transform="rotate(135 17.6569 17.6572)" stroke="#D13F41" stroke-width="1.5"/>
<circle cx="6.34338" cy="17.6569" r="1.25" transform="rotate(-135 6.34338 17.6569)" stroke="#D13F41" stroke-width="1.5"/>
<path d="M12 5.5V7.5" stroke="#D13F41" stroke-width="1.5" stroke-linecap="round"/>
<path d="M18.5 12L16.5 12" stroke="#D13F41" stroke-width="1.5" stroke-linecap="round"/>
<path d="M16.5962 16.5967L15.182 15.1825" stroke="#D13F41" stroke-width="1.5" stroke-linecap="round"/>
<path d="M7.40393 16.5957L8.81814 15.1815" stroke="#D13F41" stroke-width="1.5" stroke-linecap="round"/>
<path d="M12 17V18" stroke="#D13F41" stroke-width="1.5" stroke-linecap="round"/>
<path d="M7 12L6 12" stroke="#D13F41" stroke-width="1.5" stroke-linecap="round"/>
<path d="M8.46448 8.46484L7.75737 7.75774" stroke="#D13F41" stroke-width="1.5" stroke-linecap="round"/>
<path d="M15.5358 8.46387L16.2429 7.75676" stroke="#D13F41" stroke-width="1.5" stroke-linecap="round"/>
<circle cx="12" cy="20" r="1.25" stroke="#D13F41" stroke-width="1.5"/>
<circle cx="4" cy="12" r="1.25" transform="rotate(90 4 12)" stroke="#D13F41" stroke-width="1.5"/>
<circle cx="6.34314" cy="6.34277" r="1.25" transform="rotate(135 6.34314 6.34277)" stroke="#D13F41" stroke-width="1.5"/>
<circle cx="17.6569" cy="6.34345" r="1.25" transform="rotate(-135 17.6569 6.34345)" stroke="#D13F41" stroke-width="1.5"/>
<circle cx="12" cy="12" r="4.25" stroke="#D13F41" stroke-width="1.5"/>
<circle cx="12" cy="10.916" r="1.25" stroke="#D13F41" stroke-width="1.5"/>
<path d="M14.5872 15.238C14.024 14.4117 13.0753 13.8691 11.9999 13.8691C10.9245 13.8691 9.97578 14.4117 9.4126 15.238" stroke="#D13F41" stroke-width="1.5"/>
</svg>
