<svg width="375" height="44" viewBox="0 0 375 44" fill="none" xmlns="http://www.w3.org/2000/svg">
<path d="M26.7726 28L28.7901 24.5125C28.2951 24.5425 27.8226 24.475 27.3726 24.31C26.9276 24.145 26.5301 23.9 26.1801 23.575C25.8301 23.25 25.5526 22.865 25.3476 22.42C25.1476 21.975 25.0476 21.4925 25.0476 20.9725C25.0476 20.4675 25.1426 19.995 25.3326 19.555C25.5226 19.11 25.7851 18.72 26.1201 18.385C26.4601 18.045 26.8501 17.78 27.2901 17.59C27.7351 17.4 28.2126 17.305 28.7226 17.305C29.3876 17.305 29.9951 17.47 30.5451 17.8C31.1001 18.13 31.5426 18.5725 31.8726 19.1275C32.2076 19.6825 32.3751 20.2975 32.3751 20.9725C32.3751 21.3075 32.3326 21.625 32.2476 21.925C32.1676 22.22 32.0401 22.52 31.8651 22.825L28.8876 28H26.7726ZM28.7076 22.81C29.0676 22.81 29.3851 22.7225 29.6601 22.5475C29.9401 22.3725 30.1576 22.145 30.3126 21.865C30.4676 21.585 30.5451 21.285 30.5451 20.965C30.5451 20.615 30.4601 20.3025 30.2901 20.0275C30.1201 19.7475 29.8951 19.53 29.6151 19.375C29.3351 19.215 29.0376 19.135 28.7226 19.135C28.3626 19.135 28.0426 19.2225 27.7626 19.3975C27.4876 19.5675 27.2701 19.7925 27.1101 20.0725C26.9501 20.3525 26.8701 20.65 26.8701 20.965C26.8701 21.3 26.9501 21.6075 27.1101 21.8875C27.2751 22.1675 27.4951 22.3925 27.7701 22.5625C28.0501 22.7275 28.3626 22.81 28.7076 22.81ZM34.2025 22.3825C33.9425 22.3825 33.72 22.2925 33.535 22.1125C33.355 21.9275 33.265 21.7025 33.265 21.4375C33.265 21.1825 33.355 20.9625 33.535 20.7775C33.72 20.5925 33.9425 20.5 34.2025 20.5C34.4625 20.5 34.685 20.5925 34.87 20.7775C35.055 20.9625 35.1475 21.1825 35.1475 21.4375C35.1475 21.7025 35.055 21.9275 34.87 22.1125C34.685 22.2925 34.4625 22.3825 34.2025 22.3825ZM34.2025 28.195C33.9425 28.195 33.72 28.105 33.535 27.925C33.355 27.74 33.265 27.515 33.265 27.25C33.265 26.995 33.355 26.775 33.535 26.59C33.72 26.405 33.9425 26.3125 34.2025 26.3125C34.4625 26.3125 34.685 26.405 34.87 26.59C35.055 26.775 35.1475 26.995 35.1475 27.25C35.1475 27.515 35.055 27.74 34.87 27.925C34.685 28.105 34.4625 28.195 34.2025 28.195ZM40.9538 28V25.4575H36.4838V23.62L40.5263 17.5H42.7838V23.6275H43.6688V25.4575H42.7838V28H40.9538ZM38.6063 23.62L40.9538 23.6275L40.9463 19.9975L38.6063 23.62ZM46.3253 28V19.33H45.0053L45.5003 17.5H48.1553V28H46.3253Z" fill="black"/>
<path fill-rule="evenodd" clip-rule="evenodd" d="M328.589 16.1602H343.411C344.659 16.1602 345.111 16.2901 345.568 16.5341C346.024 16.7782 346.382 17.1363 346.626 17.5926C346.87 18.0489 347 18.5015 347 19.7496V24.0707C347 25.3188 346.87 25.7714 346.626 26.2277C346.382 26.684 346.024 27.0421 345.568 27.2862C345.111 27.5302 344.659 27.6602 343.411 27.6602H328.589C327.341 27.6602 326.889 27.5302 326.432 27.2862C325.976 27.0421 325.618 26.684 325.374 26.2277C325.13 25.7714 325 25.3188 325 24.0707V19.7496C325 18.5015 325.13 18.0489 325.374 17.5926C325.618 17.1363 325.976 16.7782 326.432 16.5341C326.889 16.2901 327.341 16.1602 328.589 16.1602ZM328.589 17.1602C327.602 17.1602 327.258 17.2267 326.904 17.416C326.622 17.5668 326.407 17.7821 326.256 18.0642C326.067 18.4181 326 18.7626 326 19.7496V24.0707C326 25.0577 326.067 25.4023 326.256 25.7561C326.407 26.0382 326.622 26.2535 326.904 26.4044C327.258 26.5936 327.602 26.6602 328.589 26.6602H343.411C344.398 26.6602 344.742 26.5936 345.096 26.4044C345.378 26.2535 345.593 26.0382 345.744 25.7561C345.933 25.4023 346 25.0577 346 24.0707V19.7496C346 18.7626 345.933 18.4181 345.744 18.0642C345.593 17.7821 345.378 17.5668 345.096 17.416C344.742 17.2267 344.398 17.1602 343.411 17.1602H328.589ZM349.5 21.8496C349.5 23.0862 348 23.8496 348 23.8496V19.8496C348 19.8496 349.5 20.613 349.5 21.8496Z" fill="white" fill-opacity="0.3"/>
<rect x="327" y="18.0762" width="18" height="7.66667" rx="1.6" fill="black"/>
<path fill-rule="evenodd" clip-rule="evenodd" d="M296.623 17.5655C296.6 17.6814 296.6 17.8208 296.6 18.0996V25.7996C296.6 26.0784 296.6 26.2178 296.623 26.3337C296.717 26.8097 297.089 27.1819 297.566 27.2766C297.681 27.2996 297.821 27.2996 298.1 27.2996C298.378 27.2996 298.518 27.2996 298.634 27.2766C299.11 27.1819 299.482 26.8097 299.577 26.3337C299.6 26.2178 299.6 26.0784 299.6 25.7996V18.0996C299.6 17.8208 299.6 17.6814 299.577 17.5655C299.482 17.0895 299.11 16.7174 298.634 16.6227C298.518 16.5996 298.378 16.5996 298.1 16.5996C297.821 16.5996 297.681 16.5996 297.566 16.6227C297.089 16.7174 296.717 17.0895 296.623 17.5655ZM291.9 20.5C291.9 20.2212 291.9 20.0818 291.923 19.9659C292.018 19.4899 292.39 19.1177 292.866 19.0231C292.982 19 293.122 19 293.4 19C293.679 19 293.819 19 293.934 19.0231C294.411 19.1177 294.783 19.4899 294.877 19.9659C294.9 20.0818 294.9 20.2212 294.9 20.5V25.8C294.9 26.0788 294.9 26.2182 294.877 26.3341C294.783 26.8101 294.411 27.1823 293.934 27.2769C293.819 27.3 293.679 27.3 293.4 27.3C293.122 27.3 292.982 27.3 292.866 27.2769C292.39 27.1823 292.018 26.8101 291.923 26.3341C291.9 26.2182 291.9 26.0788 291.9 25.8V20.5ZM287.324 22.2647C287.301 22.3806 287.301 22.52 287.301 22.7988V25.7988C287.301 26.0776 287.301 26.217 287.324 26.3329C287.419 26.809 287.791 27.1811 288.267 27.2758C288.383 27.2988 288.522 27.2988 288.801 27.2988C289.08 27.2988 289.219 27.2988 289.335 27.2758C289.811 27.1811 290.183 26.809 290.278 26.3329C290.301 26.217 290.301 26.0776 290.301 25.7988V22.7988C290.301 22.52 290.301 22.3806 290.278 22.2647C290.183 21.7887 289.811 21.4166 289.335 21.3219C289.219 21.2988 289.08 21.2988 288.801 21.2988C288.522 21.2988 288.383 21.2988 288.267 21.3219C287.791 21.4166 287.419 21.7887 287.324 22.2647ZM282.523 24.2647C282.5 24.3806 282.5 24.52 282.5 24.7988V25.7988C282.5 26.0776 282.5 26.217 282.523 26.3329C282.618 26.809 282.99 27.1811 283.466 27.2758C283.582 27.2988 283.721 27.2988 284 27.2988C284.279 27.2988 284.418 27.2988 284.534 27.2758C285.01 27.1811 285.382 26.809 285.477 26.3329C285.5 26.217 285.5 26.0776 285.5 25.7988V24.7988C285.5 24.52 285.5 24.3806 285.477 24.2647C285.382 23.7887 285.01 23.4166 284.534 23.3219C284.418 23.2988 284.279 23.2988 284 23.2988C283.721 23.2988 283.582 23.2988 283.466 23.3219C282.99 23.4166 282.618 23.7887 282.523 24.2647Z" fill="black"/>
<path fill-rule="evenodd" clip-rule="evenodd" d="M312.3 18.6968C314.534 18.6968 316.683 19.5554 318.303 21.095C318.425 21.2138 318.62 21.2123 318.74 21.0916L319.905 19.9152C319.966 19.854 320 19.771 320 19.6847C319.999 19.5984 319.964 19.5159 319.903 19.4554C315.652 15.3821 308.947 15.3821 304.697 19.4554C304.635 19.5158 304.6 19.5984 304.6 19.6846C304.599 19.7709 304.633 19.8539 304.694 19.9152L305.86 21.0916C305.98 21.2125 306.175 21.214 306.297 21.095C307.916 19.5553 310.065 18.6967 312.3 18.6968ZM312.3 22.5246C313.528 22.5245 314.712 22.9808 315.622 23.8048C315.745 23.9218 315.939 23.9193 316.059 23.7991L317.223 22.6227C317.284 22.561 317.318 22.4773 317.317 22.3903C317.316 22.3033 317.281 22.2203 317.218 22.1599C314.447 19.5821 310.155 19.5821 307.384 22.1599C307.322 22.2203 307.286 22.3034 307.285 22.3904C307.284 22.4774 307.318 22.5611 307.38 22.6227L308.544 23.7991C308.664 23.9193 308.858 23.9218 308.981 23.8048C309.89 22.9813 311.073 22.5251 312.3 22.5246ZM314.537 25.3314C314.599 25.2703 314.633 25.1862 314.632 25.099C314.63 25.0118 314.592 24.9291 314.527 24.8706C313.241 23.7827 311.357 23.7827 310.071 24.8706C310.006 24.9291 309.969 25.0117 309.967 25.0989C309.965 25.1861 309.999 25.2703 310.061 25.3314L312.076 27.3639C312.135 27.4237 312.215 27.4573 312.299 27.4573C312.383 27.4573 312.464 27.4237 312.523 27.3639L314.537 25.3314Z" fill="black"/>
</svg>
