<svg width="139" height="117" viewBox="0 0 139 117" fill="none" xmlns="http://www.w3.org/2000/svg">
<g clip-path="url(#clip0_72_283)">
<path d="M6.70705 39.87L0.00481266 36.2394C-0.0855931 32.3551 0.811267 28.5082 2.61752 25.0328C4.16275 31.7781 12.2948 34.9872 16.0468 40.8766C17.2024 42.7221 17.9113 44.7941 18.1211 46.9389C18.331 49.0837 18.0362 51.2464 17.2588 53.2668L17.6996 58.4966C14.2357 57.4988 11.0378 55.7906 8.32642 53.4897C5.615 51.1888 3.45447 48.3498 1.99368 45.1686C1.19257 43.3761 0.629349 41.4937 0.317318 39.5658C3.44219 39.8856 6.70705 39.87 6.70705 39.87Z" fill="#F2F2F2"/>
<path d="M127.191 105.92L127.396 101.476C129.539 100.375 131.928 99.7929 134.358 99.7812C131.014 102.41 131.432 107.478 129.165 111.013C128.45 112.111 127.486 113.039 126.347 113.73C125.207 114.42 123.921 114.855 122.582 115.003L119.784 116.65C119.401 114.592 119.485 112.478 120.033 110.454C120.58 108.43 121.577 106.544 122.955 104.927C123.738 104.027 124.635 103.225 125.626 102.541C126.296 104.24 127.191 105.92 127.191 105.92Z" fill="#E6E6E6"/>
<path d="M119.982 114.363L117.448 114.363L116.243 104.965L119.982 104.965L119.982 114.363Z" fill="#FFB6B6"/>
<path d="M120.628 116.725L112.459 116.725V116.625C112.459 115.814 112.794 115.037 113.39 114.463C113.987 113.89 114.795 113.568 115.639 113.568H115.639L117.131 112.479L119.915 113.568L120.628 113.568L120.628 116.725Z" fill="#2F2E41"/>
<path d="M108.212 114.363L105.679 114.363L104.473 104.965L108.213 104.965L108.212 114.363Z" fill="#FFB6B6"/>
<path d="M108.858 116.725L100.689 116.725V116.625C100.68u9 115.814 101.024 115.037 101.621 114.463C102.217 113.89 103.026 113.568 103.869 113.568H103.869L105.361 112.479L108.145 113.568L108.858 113.568L108.858 116.725Z" fill="#2F2E41"/>
<path d="M107.115 62.9833L123.594 63.3795C126.724 65.0143 126.771 68.5527 125.746 72.7538C125.746 72.7538 126.092 75.2508 125.399 75.9167C124.707 76.5825 124.361 76.5825 124.707 77.7478C125.053 78.9131 123.224 80.8163 123.446 81.0299C123.669 81.2436 124.188 82.4089 124.188 82.4089L122.457 91.8974C122.457 91.8974 121.245 108.378 120.899 108.711C120.553 109.043 120.207 108.711 120.553 109.543C120.899 110.375 121.245 110.042 120.899 110.375C120.593 110.693 120.304 111.027 120.034 111.374H115.849C115.849 111.374 115.534 109.709 115.534 109.543C115.534 109.376 115.187 108.378 115.187 108.211C115.187 108.045 115.493 107.75 115.493 107.75C115.599 107.412 115.671 107.065 115.707 106.713C115.707 106.38 116.745 93.5621 116.745 93.5621L114.668 76.9155L109.649 93.2292C109.649 93.2292 109.649 107.545 109.302 107.878C108.956 108.211 108.956 108.045 109.129 108.711C109.302 109.376 109.995 109.21 109.476 109.709C108.956 110.209 108.783 109.376 108.956 110.209L109.129 111.041L103.937 111.113C103.937 111.113 103.244 109.709 103.591 109.21C103.937 108.711 103.916 108.847 103.494 108.03C103.071 107.212 102.898 107.046 103.071 106.879C103.244 106.713 103.244 105.828 103.244 105.828L104.11 89.8998C104.11 89.8998 104.283 73.0867 104.283 72.5873C104.296 72.3304 104.247 72.074 104.139 71.8385V71.1606L104.802 68.7586L107.115 62.9833Z" fill="#69687F"/>
<path d="M117.014 30.0292C119.842 30.0292 122.134 27.8245 122.134 25.105C122.134 22.3855 119.842 20.1808 117.014 20.1808C114.187 20.1808 111.894 22.3855 111.894 25.105C111.894 27.8245 114.187 30.0292 117.014 30.0292Z" fill="#FFB6B6"/>
<path d="M114.454 33.2837C113.351 33.9144 112.691 35.0731 112.313 36.2523C111.611 38.4354 111.189 40.6925 111.056 42.9738L110.656 49.8035L105.701 64.3458C109.995 67.8404 126.136 65.1401 126.136 65.1401C126.136 65.1401 126.632 64.9812 126.136 64.5047C125.641 64.0281 125.158 64.4503 125.654 63.9738C126.149 63.4973 125.808 64.0281 125.642 63.5516C125.477 63.0751 125.642 63.3928 125.808 63.2339C125.973 63.0751 124.529 61.6455 124.529 61.6455L125.85 53.298L127.502 36.4605C125.52 34.0779 121.534 32.6733 121.534 32.6733L120.504 30.8904L115.355 31.2866L114.454 33.2837Z" fill="#D13F41"/>
<path d="M113.752 22.2151C113.95 22.2166 114.147 22.2415 114.339 22.2892C114.717 22.3766 115.101 22.4385 115.488 22.4745C116.674 22.5818 117.787 23.0679 118.652 23.8553C119.516 24.6428 120.081 25.686 120.256 26.8185C120.554 26.569 121.231 26.1101 121.786 26.5366C121.794 26.5434 121.799 26.5469 121.819 26.538C122.187 26.3699 122.841 24.3004 122.861 22.4783C122.872 21.5112 122.713 20.2762 121.9 19.8852L121.857 19.8645L121.846 19.8198C121.792 19.6022 121.185 19.2309 120.129 18.9418C118.212 18.4166 115.354 17.3934 113.745 18.8992C113.623 19.4068 113.226 20.4932 112.826 20.6163C112.383 20.7526 112 20.8703 111.94 21.3932C111.889 22.1373 111.893 22.884 111.951 23.6276C112.101 23.1726 112.396 22.7743 112.794 22.4888C113.077 22.3056 113.411 22.2101 113.752 22.2151Z" fill="#2F2E41"/>
<path d="M104.222 49.4233L112.586 44.2719L108.373 38.8864L104.214 43.8073L91.2538 44.5718C90.9129 44.2477 90.4813 44.026 90.0117 43.9338C89.5421 43.8415 89.0547 43.8827 88.609 44.0522C88.1633 44.2217 87.7785 44.5123 87.5015 44.8886C87.2246 45.2648 87.0674 45.7104 87.0492 46.171C87.031 46.6317 87.1526 47.0875 87.3991 47.4828C87.6456 47.8782 88.0063 48.196 88.4374 48.3976C88.8685 48.5991 89.3512 48.6757 89.8267 48.618C90.3023 48.5603 90.7501 48.3707 91.1155 48.0724L104.222 49.4233Z" fill="#FFB6B6"/>
<path d="M120.348 37.0816C120.834 39.9069 111.667 45.302 111.667 45.302C111.667 44.6389 106.196 49.6452 105.949 49.0952C105.247 47.5321 104.754 43.8298 103.773 43.2372C103.212 42.8983 107.151 39.7148 107.151 39.7148C107.151 39.7148 109.212 37.7171 111.918 35.1974C112.669 34.4714 113.599 33.9399 114.621 33.6526C115.644 33.3652 116.725 33.3313 117.764 33.5539C117.764 33.5539 119.863 34.2563 120.348 37.0816Z" fill="#D13F41"/>
<path d="M137.587 50.7754L132.055 42.8427L126.545 47.0071L131.749 50.9024L132.818 63.3479C132.488 63.6825 132.267 64.1022 132.181 64.5557C132.095 65.0092 132.148 65.477 132.334 65.9019C132.52 66.3269 132.83 66.6908 133.227 66.9491C133.624 67.2075 134.09 67.3491 134.57 67.3569C135.049 67.3646 135.52 67.2381 135.926 66.9927C136.332 66.7473 136.654 66.3937 136.855 65.975C137.055 65.5562 137.124 65.0904 137.054 64.6344C136.984 64.1784 136.778 63.7518 136.46 63.4067L137.587 50.7754Z" fill="#FFB6B6"/>
<path d="M124.416 35.531C127.342 35.0045 133.145 43.7043 133.145 43.7043C132.456 43.7185 137.776 48.8732 137.209 49.1223C135.599 49.8302 131.761 50.3831 131.166 51.3387C130.825 51.8852 127.432 48.1653 127.432 48.1653C127.432 48.1653 125.312 46.2251 122.636 43.6768C121.865 42.9699 121.293 42.087 120.972 41.1102C120.652 40.1334 120.594 39.0945 120.803 38.0903C120.803 38.0903 121.489 36.0576 124.416 35.531Z" fill="#D13F41"/>
<path d="M139 116.764C139 116.795 138.994 116.826 138.982 116.855C138.969 116.883 138.951 116.909 138.928 116.931C138.906 116.953 138.879 116.97 138.849 116.982C138.819 116.994 138.787 117 138.755 117H81.0203C80.9553 117 80.893 116.975 80.847 116.931C80.801 116.887 80.7752 116.827 80.7752 116.764C80.7752 116.702 80.801 116.642 80.847 116.598C80.893 116.553 80.9553 116.529 81.0203 116.529H138.755C138.787 116.528 138.819 116.534 138.849 116.546C138.879 116.558 138.906 116.575 138.928 116.597C138.951 116.619 138.969 116.645 138.982 116.674C138.994 116.703 139 116.733 139 116.764Z" fill="#130160"/>
<path d="M85.5157 45.3246H15.4469C14.3522 45.3258 13.3027 45.7446 12.5286 46.4891C11.7545 47.2336 11.3191 48.2429 11.3179 49.2958V91.2519C11.3191 92.3047 11.7545 93.3141 12.5286 94.0586C13.3027 94.8031 14.3522 95.2219 15.4469 95.2231H85.5156C86.6103 95.2219 87.6599 94.8031 88.434 94.0586C89.208 93.3141 89.6435 92.3047 89.6447 91.2519V49.2958C89.6435 48.2429 89.2081 47.2335 88.434 46.4891C87.6599 45.7446 86.6104 45.3258 85.5157 45.3246Z" fill="#737373"/>
<path d="M85.5157 45.3246H15.4469C14.3522 45.3258 13.3027 45.7446 12.5286 46.4891C11.7545 47.2336 11.3191 48.2429 11.3179 49.2958V91.2519C11.3191 92.3047 11.7545 93.3141 12.5286 94.0586C13.3027 94.8031 14.3522 95.2219 15.4469 95.2231H85.5156C86.6103 95.2219 87.6599 94.8031 88.434 94.0586C89.208 93.3141 89.6435 92.3048 89.6447 91.2519V49.2958C89.6435 48.2429 89.2081 47.2335 88.434 46.4891C87.6599 45.7446 86.6104 45.3258 85.5157 45.3246ZM86.8707 75.4622C86.854 79.7336 85.0972 83.8285 81.9773 86.8685C78.8575 89.9086 74.623 91.6515 70.1824 91.7234C63.0726 91.8124 74.1162 91.8471 65.5413 91.8471C45.9334 91.8471 25.4877 91.6669 17.8592 91.55C16.8555 91.5301 15.8997 91.1336 15.1958 90.4452C14.4919 89.7568 14.0958 88.831 14.0919 87.8656V49.2989C14.0923 48.9532 14.235 48.6216 14.4889 48.3769C14.7428 48.1321 15.0872 47.994 15.4466 47.9927H85.5128C85.8722 47.9931 86.2169 48.1304 86.4713 48.3745C86.7258 48.6187 86.8694 48.9497 86.8707 49.2954V75.4622Z" fill="#130160"/>
<path d="M76.8902 21.165H23.5052C23.0329 21.1656 22.5723 21.3065 22.1863 21.5683C21.8003 21.8301 21.5077 22.2001 21.3484 22.6277L13.1035 44.8748C12.9804 45.2069 12.9421 45.5625 12.9916 45.9118C13.0411 46.261 13.1771 46.5938 13.3881 46.882C13.5992 47.1703 13.8791 47.4056 14.2043 47.5682C14.5295 47.7308 14.8906 47.8159 15.2571 47.8164L86.8551 47.9386H86.8583C87.2372 47.9386 87.6102 47.8481 87.9438 47.6754C88.2774 47.5026 88.5612 47.2529 88.7698 46.9487C88.9784 46.6444 89.1052 46.2952 89.1389 45.9322C89.1726 45.5692 89.1121 45.2039 88.9629 44.8689L88.838 44.9203L88.9629 44.8689L78.9948 22.4997C78.8186 22.1033 78.5252 21.7655 78.151 21.5283C77.7768 21.291 77.3384 21.1646 76.8902 21.165Z" fill="#130160"/>
<path d="M89.1483 45.3521C89.1481 45.6504 89.085 45.9456 88.9629 46.2198L78.9955 63.439C78.818 63.8344 78.5242 64.1714 78.1501 64.4083C77.7761 64.6451 77.3382 64.7717 76.8904 64.7722H23.5061C23.0336 64.7718 22.5728 64.6311 22.1864 64.3695C21.8001 64.1078 21.5071 63.7379 21.3475 63.3102L13.1041 46.2138C13.003 45.9415 12.9588 45.6526 12.9739 45.3638C12.989 45.075 13.0631 44.7918 13.1921 44.5306C13.321 44.2693 13.5022 44.0351 13.7253 43.8412C13.9484 43.6473 14.2091 43.4977 14.4924 43.4008C14.7375 43.3157 14.996 43.2721 15.2566 43.272L24.0026 43.2561L27.5722 43.2502L74.5442 43.171L78.116 43.165L86.8557 43.1492H86.8578C87.4652 43.1493 88.0478 43.3814 88.4773 43.7945C88.9068 44.2076 89.1482 44.7679 89.1483 45.3521Z" fill="#130160"/>
<path d="M20.6998 76.7966C21.7584 76.7966 36.2955 77.651 36.2955 78.6692C36.2955 79.6873 21.7584 80.4835 20.6998 80.4835C20.1914 80.4835 19.7039 80.2893 19.3444 79.9436C18.985 79.5979 18.783 79.129 18.783 78.6401C18.783 78.1511 18.985 77.6822 19.3444 77.3365C19.7039 76.9908 20.1914 76.7966 20.6998 76.7966Z" fill="#130160"/>
<path d="M66.5418 60.3664H35.5746C35.3069 60.3664 35.0501 60.4687 34.8609 60.6507C34.6716 60.8328 34.5652 61.0797 34.5652 61.3371C34.5652 61.5946 34.6716 61.8415 34.8609 62.0235C35.0501 62.2055 35.3069 62.3078 35.5746 62.3078H66.5418C66.8095 62.3078 67.0662 62.2055 67.2555 62.0235C67.4448 61.8415 67.5511 61.5946 67.5511 61.3371C67.5511 61.0797 67.4448 60.8328 67.2555 60.6507C67.0662 60.4687 66.8095 60.3664 66.5418 60.3664Z" fill="#E4E4E4"/>
<path d="M50.7441 75.8919C50.5713 75.8921 50.4001 75.8595 50.2401 75.7961L21.8553 64.3686V28.5984C21.8557 28.2821 21.9853 27.9789 22.2158 27.7552C22.4464 27.5316 22.7589 27.4058 23.0849 27.4054H77.5391C77.8651 27.4058 78.1776 27.5316 78.4081 27.7552C78.6386 27.9789 78.7683 28.2821 78.7687 28.5984V64.3935L78.7153 64.4157L51.2633 75.7905C51.099 75.8575 50.9224 75.892 50.7441 75.8919Z" fill="white"/>
<path d="M50.7044 64.2181C58.4294 64.2181 64.6918 58.1133 64.6918 50.5827C64.6918 43.0521 58.4294 36.9474 50.7044 36.9474C42.9794 36.9474 36.717 43.0521 36.717 50.5827C36.717 58.1133 42.9794 64.2181 50.7044 64.2181Z" fill="#737373"/>
<path d="M48.8728 58.0602C48.6408 58.0602 48.412 58.0058 48.2045 57.9013C47.997 57.7969 47.8165 57.6452 47.6774 57.4584L44.012 52.5397C43.8936 52.3817 43.8074 52.2018 43.7582 52.0102C43.709 51.8187 43.6979 51.6192 43.7254 51.4233C43.753 51.2274 43.8187 51.0389 43.9187 50.8685C44.0188 50.6982 44.1512 50.5494 44.3085 50.4307C44.4658 50.312 44.6448 50.2257 44.8353 50.1767C45.0258 50.1277 45.224 50.1171 45.4186 50.1453C45.6132 50.1736 45.8003 50.2402 45.9693 50.3414C46.1382 50.4426 46.2857 50.5763 46.4032 50.7349L48.8012 53.9526L54.9601 44.6548C55.18 44.3229 55.5218 44.0924 55.9105 44.0142C56.2992 43.936 56.7028 44.0163 57.0326 44.2376C57.3624 44.4589 57.5914 44.803 57.6691 45.1941C57.7468 45.5853 57.667 45.9916 57.4471 46.3235L50.1164 57.3904C49.9838 57.5905 49.8055 57.7557 49.5963 57.8722C49.3872 57.9887 49.1533 58.053 48.9144 58.0597C48.9005 58.0599 48.8867 58.0602 48.8728 58.0602Z" fill="white"/>
</g>
<defs>
<clipPath id="clip0_72_283">
<rect width="139" height="117" fill="white"/>
</clipPath>
</defs>
</svg>
